<svg width="435" height="94" viewBox="0 0 435 94" fill="none" xmlns="http://www.w3.org/2000/svg">
<path d="M93.9222 45.2049C93.9222 45.2049 94.1422 45.4249 94.5822 45.8649C94.5822 45.8649 94.5455 45.9382 94.4722 46.0849C94.4722 46.1582 94.4355 46.1949 94.3621 46.1949C93.5555 46.6349 93.0422 46.8915 92.8221 46.9649L85.6721 48.1749L78.4122 49.3849C77.5321 49.5315 76.9821 49.9349 76.7622 50.5949C75.7355 53.4549 74.8922 55.9482 74.2322 58.0749C69.5388 73.1815 65.9822 84.4749 63.5622 91.9549C63.4888 92.2482 63.2322 92.6882 62.7922 93.2749C62.7922 93.3482 62.7188 93.3849 62.5722 93.3849C62.4988 93.4582 62.4255 93.4949 62.3522 93.4949C61.9122 93.2749 61.6922 93.0915 61.6922 92.9449C61.6922 92.1382 61.8388 91.3315 62.1322 90.5249L71.0422 61.9249C72.0688 58.9182 72.9122 56.2415 73.5722 53.8949C73.6455 53.5282 73.7188 53.0882 73.7922 52.5749C73.8655 52.0615 73.9022 51.6582 73.9022 51.3649C73.9022 51.2182 73.7555 51.0349 73.4621 50.8149C73.2422 50.5215 73.0222 50.3749 72.8022 50.3749C72.5821 50.3749 72.3255 50.3749 72.0321 50.3749C71.8122 50.3015 71.5188 50.3015 71.1522 50.3749C69.6855 50.6682 67.4121 51.0349 64.3322 51.4749C59.0522 52.3549 54.6522 53.1249 51.1322 53.7849C47.6855 54.4449 44.2388 55.2515 40.7922 56.2049L38.3722 56.7549C36.4655 57.2682 35.2188 57.6715 34.6321 57.9649C34.0455 58.2582 33.6055 58.7349 33.3121 59.3949C33.0188 59.9815 32.4688 61.4849 31.6621 63.9049L29.0221 72.1549C28.5088 73.6949 27.9588 75.3815 27.3721 77.2149C26.7855 79.0482 26.1621 80.9549 25.5021 82.9349C24.6955 85.4282 23.8521 87.6282 22.9721 89.5349C22.6055 90.2682 21.9821 91.0749 21.1021 91.9549C20.7355 92.3949 20.1488 92.6149 19.3421 92.6149C18.6088 92.6149 18.0221 92.3949 17.5821 91.9549C17.4355 91.8082 17.2155 91.5515 16.9221 91.1849C16.6288 90.8915 16.4088 90.5982 16.2621 90.3049C15.6755 89.4249 15.0888 88.3982 14.5021 87.2249C12.3021 82.7515 8.85548 77.8382 4.16215 72.4849C2.25548 70.3582 1.33881 69.3315 1.41215 69.4049C1.04548 68.8915 0.862148 68.4149 0.862148 67.9749C0.862148 67.1682 1.33881 66.5449 2.29215 66.1049L6.47215 64.4549C10.6521 62.9149 16.5921 61.0449 24.2921 58.8449L27.2621 57.9649L29.3521 57.4149C31.2588 56.9749 32.5421 55.8749 33.2021 54.1149C35.0355 48.6149 37.3455 43.0415 40.1321 37.3949C44.3855 28.7415 49.4088 20.8582 55.2022 13.7449C58.5022 9.78486 61.6188 6.6682 64.5521 4.39486C66.9722 2.56153 69.5755 1.27819 72.3622 0.544858C72.6555 0.471526 73.1322 0.43486 73.7922 0.43486C75.1122 0.43486 76.2122 0.838192 77.0921 1.64486C77.3122 1.79153 77.4588 2.04819 77.5321 2.41486C78.1921 2.41486 78.8155 2.70819 79.4022 3.29486C80.7955 4.90819 81.7488 7.03486 82.2622 9.67486C82.7022 12.6082 82.9222 14.7715 82.9222 16.1649L82.8122 18.0349C82.2988 24.4882 81.5288 30.0615 80.5022 34.7549L77.9722 44.8749C77.9722 45.0949 77.9355 45.2415 77.8622 45.3149L77.7522 45.9749C77.7522 47.1482 78.4855 47.6249 79.9522 47.4049L93.9222 45.2049ZM76.2122 44.5449C77.8255 38.0915 79.0721 32.4082 79.9522 27.4949C80.6122 23.4615 80.8688 18.5482 80.7222 12.7549C80.7222 10.0415 79.9155 7.36486 78.3022 4.72486C78.2288 4.57819 78.0455 4.28486 77.7522 3.84486C77.4588 3.40486 77.3488 2.96486 77.4222 2.52486C76.4688 2.52486 75.7355 2.48819 75.2222 2.41486L74.0121 2.30486C71.8122 2.30486 69.6122 3.03819 67.4122 4.50486C65.5055 5.82486 63.5622 7.40153 61.5822 9.23486C58.4288 12.3882 55.1288 16.3849 51.6822 21.2249C45.5955 29.8049 40.2788 40.1815 35.7321 52.3549L35.2921 53.7849L35.1821 54.2249V54.5549C35.1821 54.9215 35.3288 55.2149 35.6221 55.4349C35.9888 55.5815 36.3921 55.5815 36.8321 55.4349C46.5121 53.0149 56.6321 50.9982 67.1922 49.3849C67.4122 49.3849 69.4288 49.0549 73.2422 48.3949C74.3422 48.1749 75.1488 47.5149 75.6622 46.4149L76.2122 44.5449ZM30.6721 60.4949C30.6721 60.1282 30.4888 59.8349 30.1221 59.6149C29.7555 59.3215 29.3521 59.2115 28.9121 59.2849C19.8921 61.7049 11.9355 64.2349 5.04215 66.8749C4.82215 66.9482 4.63881 67.0215 4.49215 67.0949C4.34548 67.1682 4.19881 67.2415 4.05215 67.3149C3.68548 67.4615 3.46548 67.7182 3.39215 68.0849C3.24548 68.4515 3.28215 68.7815 3.50215 69.0749C4.60215 70.3949 5.15215 71.0549 5.15215 71.0549C10.4321 76.8482 14.2455 82.3115 16.5921 87.4449C16.8121 87.9582 17.3621 88.8015 18.2421 89.9749C18.3155 90.0482 18.6088 90.2682 19.1221 90.6349C19.4155 90.6349 19.5988 90.5982 19.6721 90.5249C20.4055 90.0115 20.8088 89.6815 20.8821 89.5349C21.8355 88.1415 22.5321 86.6382 22.9721 85.0249C23.4855 83.4115 23.7788 82.4582 23.8521 82.1649C25.0255 78.7915 26.2721 74.9782 27.5921 70.7249L29.4621 65.0049L30.4521 61.7049C30.5988 61.2649 30.6721 60.9349 30.6721 60.7149V60.4949ZM115.989 62.9149C116.283 62.7682 116.686 62.6949 117.199 62.6949C117.639 62.6949 117.859 62.8049 117.859 63.0249C117.859 63.3182 117.419 63.7949 116.539 64.4549L103.229 71.9349C101.836 72.5949 100.736 73.6949 99.9292 75.2349C98.2425 78.0949 97.0692 79.9649 96.4092 80.8449C94.6492 83.3382 92.7792 85.2449 90.7992 86.5649C88.8192 87.9582 87.1692 88.6549 85.8492 88.6549C84.7492 88.6549 84.1992 88.1782 84.1992 87.2249C84.1992 85.6849 85.7392 83.4849 88.8192 80.6249C91.9725 77.8382 94.7225 75.6015 97.0692 73.9149C98.6092 72.8149 99.6358 71.3115 100.149 69.4049C100.369 68.3782 100.479 67.3882 100.479 66.4349C100.479 65.5549 100.406 64.8949 100.259 64.4549C100.039 63.5749 99.3425 63.1349 98.1692 63.1349C96.9225 63.1349 95.5658 63.6115 94.0992 64.5649C90.8725 66.6915 87.9025 69.0015 85.1892 71.4949C82.8425 73.5482 81.4125 74.5749 80.8992 74.5749C80.6792 74.5749 80.5692 74.4649 80.5692 74.2449C80.5692 73.8049 80.8258 73.1082 81.3392 72.1549C84.0525 66.8015 86.6192 61.4115 89.0392 55.9849C91.4592 50.4849 94.3925 43.5915 97.8392 35.3049L99.4892 31.2349C100.223 29.3282 101.396 26.5415 103.009 22.8749C103.449 21.5549 103.999 20.8949 104.659 20.8949C104.953 20.8949 105.099 21.1515 105.099 21.6649C105.099 22.1782 104.953 22.7649 104.659 23.4249L103.339 26.6149C100.846 32.7749 98.2058 39.1182 95.4192 45.6449C92.7058 52.0982 90.1392 57.9649 87.7192 63.2449C87.5725 63.6115 87.2792 64.2715 86.8392 65.2249C86.3992 66.1049 86.1425 66.9849 86.0692 67.8649C86.8758 67.5715 87.7558 67.0582 88.7092 66.3249C89.6625 65.5915 90.3958 65.0415 90.9092 64.6749C93.3292 63.0615 95.4192 61.9615 97.1792 61.3749C97.7658 61.2282 98.2425 61.1549 98.6092 61.1549C99.4892 61.1549 100.259 61.4115 100.919 61.9249C101.579 62.4382 101.946 63.1349 102.019 64.0149C102.093 64.6749 102.129 65.6649 102.129 66.9849C102.129 67.2049 102.129 67.6082 102.129 68.1949C102.203 68.7815 102.313 69.2215 102.459 69.5149C102.679 69.8082 103.009 69.8449 103.449 69.6249L107.299 67.5349L115.989 62.9149ZM96.1892 77.8749C96.3358 77.6549 96.4092 77.4349 96.4092 77.2149C96.4092 76.9949 96.2258 76.9949 95.8592 77.2149C93.9525 78.3149 91.8625 79.9282 89.5892 82.0549C87.3892 84.1815 86.6192 85.5749 87.2792 86.2349C88.5992 86.2349 90.1392 85.2815 91.8992 83.3749C93.7325 81.5415 95.1625 79.7082 96.1892 77.8749ZM116.037 65.6649V65.1149C115.891 64.2349 115.817 63.5749 115.817 63.1349C115.817 60.7149 116.551 58.7349 118.017 57.1949C119.557 55.6549 121.207 54.8849 122.967 54.8849C124.434 54.8849 125.644 55.4715 126.597 56.6449C127.624 57.8182 128.137 59.5782 128.137 61.9249C128.137 62.5115 128.064 63.4649 127.917 64.7849C127.917 65.2249 128.211 65.2982 128.797 65.0049C129.384 64.7115 130.337 64.1249 131.657 63.2449L134.627 61.3749C134.774 61.2282 134.921 61.2282 135.067 61.3749C135.214 61.4482 135.287 61.6315 135.287 61.9249C135.287 62.3649 135.104 62.7682 134.737 63.1349C132.904 64.8215 130.851 66.2149 128.577 67.3149C126.304 68.4149 124.544 69.6615 123.297 71.0549C122.417 71.9349 121.427 72.6315 120.327 73.1449C119.301 73.7315 118.384 74.0249 117.577 74.0249C115.891 74.0249 115.047 72.9982 115.047 70.9449L115.157 69.9549C115.231 69.5149 115.341 69.0015 115.487 68.4149C115.707 67.8282 115.854 67.3882 115.927 67.0949C116.001 66.8015 116.037 66.3249 116.037 65.6649ZM124.067 56.5349C123.481 56.5349 122.857 56.7549 122.197 57.1949C120.951 57.8549 119.961 58.7349 119.227 59.8349C118.494 60.9349 118.127 62.1449 118.127 63.4649C118.127 63.8315 118.201 64.3815 118.347 65.1149C118.421 65.7015 118.751 66.2149 119.337 66.6549C119.997 67.0949 120.694 67.3149 121.427 67.3149C123.114 67.3149 124.434 66.6549 125.387 65.3349C126.341 64.0149 126.817 62.5115 126.817 60.8249C126.817 59.6515 126.561 58.6615 126.047 57.8549C125.607 56.9749 124.947 56.5349 124.067 56.5349ZM117.797 68.9649C117.504 69.1115 117.357 69.2949 117.357 69.5149C117.357 69.5882 117.321 69.7715 117.247 70.0649C117.174 70.2849 117.137 70.5782 117.137 70.9449C117.211 71.2382 117.357 71.5315 117.577 71.8249C117.797 72.0449 118.054 72.1549 118.347 72.1549C118.494 72.1549 118.714 72.0815 119.007 71.9349C119.667 71.6415 120.401 71.1649 121.207 70.5049C121.501 70.2115 121.464 69.9182 121.097 69.6249C119.777 69.1115 118.934 68.8182 118.567 68.7449C118.347 68.6715 118.091 68.7449 117.797 68.9649ZM140.907 67.0949C140.32 67.6815 139.66 68.3049 138.927 68.9649C136.36 71.3115 134.38 72.4849 132.987 72.4849C131.887 72.4849 131.337 71.7515 131.337 70.2849C131.337 68.9649 131.74 67.2782 132.547 65.2249C133.427 63.0982 134.637 60.8615 136.177 58.5149C136.543 58.1482 136.837 57.9649 137.057 57.9649C137.203 57.9649 137.277 58.1115 137.277 58.4049C137.277 58.6982 137.057 59.5049 136.617 60.8249L134.307 66.9849C134.087 67.6449 133.977 68.1949 133.977 68.6349C133.977 69.2949 134.197 69.6249 134.637 69.6249C135.223 69.6249 136.103 69.1482 137.277 68.1949L143.547 61.8149C144.867 60.4949 145.93 59.8349 146.737 59.8349C147.397 59.8349 147.727 60.3482 147.727 61.3749C147.727 61.8882 147.69 62.3282 147.617 62.6949C147.323 63.6482 146.81 65.0782 146.077 66.9849C145.49 68.5249 145.197 69.8815 145.197 71.0549C145.197 71.8615 145.453 72.2649 145.967 72.2649C146.92 72.2649 148.46 71.0549 150.587 68.6349L157.957 59.8349C158.323 59.4682 158.837 59.2849 159.497 59.2849C160.01 59.2849 160.267 59.3949 160.267 59.6149C160.267 59.6882 160.193 59.7982 160.047 59.9449L149.927 71.9349C148.24 73.7682 146.737 74.6849 145.417 74.6849C144.023 74.6849 143.327 73.5849 143.327 71.3849C143.327 70.7249 143.363 70.1749 143.437 69.7349C143.877 67.9749 144.243 66.6182 144.537 65.6649C144.83 64.6382 145.013 63.9049 145.087 63.4649C145.087 63.0249 144.243 63.6849 142.557 65.4449C142.043 65.8849 141.493 66.4349 140.907 67.0949ZM178.174 29.4749L183.014 29.0349C184.628 29.0349 185.984 29.0715 187.084 29.1449C187.231 29.1449 187.341 29.2182 187.414 29.3649C187.488 29.4382 187.524 29.4749 187.524 29.4749C187.451 29.5482 187.341 29.6949 187.194 29.9149C187.121 30.0615 187.011 30.1349 186.864 30.1349L176.854 31.4549C175.974 31.5282 175.204 31.9682 174.544 32.7749C174.324 33.0682 174.068 33.5082 173.774 34.0949C170.694 39.5215 168.054 44.4715 165.854 48.9449C163.654 53.3449 161.711 57.7815 160.024 62.2549C158.044 67.6082 157.054 71.3482 157.054 73.4749C157.054 75.0882 157.568 75.8949 158.594 75.8949C160.208 75.8949 163.104 73.9515 167.284 70.0649C168.678 68.8182 169.888 67.6449 170.914 66.5449C172.014 65.4449 173.004 64.4915 173.884 63.6849L177.184 60.4949C178.211 59.6882 178.981 59.2849 179.494 59.2849C179.714 59.2849 179.824 59.3949 179.824 59.6149C179.824 59.8349 179.714 60.1649 179.494 60.6049C173.701 66.2515 168.934 70.5782 165.194 73.5849C161.528 76.5915 158.814 78.0949 157.054 78.0949C155.661 78.0949 154.964 77.0315 154.964 74.9049C154.964 72.5582 155.771 68.9282 157.384 64.0149C158.778 60.1282 160.318 56.3515 162.004 52.6849C163.764 49.0182 166.184 44.2515 169.264 38.3849C169.851 37.2849 170.658 35.6349 171.684 33.4349C171.758 33.2882 171.684 33.1049 171.464 32.8849C171.244 32.5915 171.024 32.4449 170.804 32.4449H169.044C165.378 33.1782 162.628 33.6915 160.794 33.9849C158.008 34.2782 155.954 34.4615 154.634 34.5349C154.488 34.5349 154.304 34.4615 154.084 34.3149C153.938 34.0949 153.864 33.8749 153.864 33.6549C153.864 33.3615 154.048 33.2149 154.414 33.2149L169.484 30.9049L170.584 30.7949C172.784 30.5015 174.361 29.4749 175.314 27.7149C178.468 22.5082 181.474 17.7415 184.334 13.4149C184.408 13.2682 184.664 12.8649 185.104 12.2049C185.544 11.5449 186.094 11.0315 186.754 10.6649H187.304C187.524 10.8849 187.634 11.0315 187.634 11.1049C187.268 12.0582 187.011 12.6449 186.864 12.8649L178.284 26.2849C177.991 26.7249 177.624 27.4582 177.184 28.4849C177.111 28.7049 177.148 28.9249 177.294 29.1449C177.514 29.3649 177.771 29.4749 178.064 29.4749H178.174ZM224.903 29.4749L229.743 29.0349C231.356 29.0349 232.713 29.0715 233.813 29.1449C233.96 29.1449 234.07 29.2182 234.143 29.3649C234.216 29.4382 234.253 29.4749 234.253 29.4749C234.18 29.5482 234.07 29.6949 233.923 29.9149C233.85 30.0615 233.74 30.1349 233.593 30.1349L223.583 31.4549C222.703 31.5282 221.933 31.9682 221.273 32.7749C221.053 33.0682 220.796 33.5082 220.503 34.0949C217.423 39.5215 214.783 44.4715 212.583 48.9449C210.383 53.3449 208.44 57.7815 206.753 62.2549C204.773 67.6082 203.783 71.3482 203.783 73.4749C203.783 75.0882 204.296 75.8949 205.323 75.8949C206.936 75.8949 209.833 73.9515 214.013 70.0649C215.406 68.8182 216.616 67.6449 217.643 66.5449C218.743 65.4449 219.733 64.4915 220.613 63.6849L223.913 60.4949C224.94 59.6882 225.71 59.2849 226.223 59.2849C226.443 59.2849 226.553 59.3949 226.553 59.6149C226.553 59.8349 226.443 60.1649 226.223 60.6049C220.43 66.2515 215.663 70.5782 211.923 73.5849C208.256 76.5915 205.543 78.0949 203.783 78.0949C202.39 78.0949 201.693 77.0315 201.693 74.9049C201.693 72.5582 202.5 68.9282 204.113 64.0149C205.506 60.1282 207.046 56.3515 208.733 52.6849C210.493 49.0182 212.913 44.2515 215.993 38.3849C216.58 37.2849 217.386 35.6349 218.413 33.4349C218.486 33.2882 218.413 33.1049 218.193 32.8849C217.973 32.5915 217.753 32.4449 217.533 32.4449H215.773C212.106 33.1782 209.356 33.6915 207.523 33.9849C204.736 34.2782 202.683 34.4615 201.363 34.5349C201.216 34.5349 201.033 34.4615 200.813 34.3149C200.666 34.0949 200.593 33.8749 200.593 33.6549C200.593 33.3615 200.776 33.2149 201.143 33.2149L216.213 30.9049L217.313 30.7949C219.513 30.5015 221.09 29.4749 222.043 27.7149C225.196 22.5082 228.203 17.7415 231.063 13.4149C231.136 13.2682 231.393 12.8649 231.833 12.2049C232.273 11.5449 232.823 11.0315 233.483 10.6649H234.033C234.253 10.8849 234.363 11.0315 234.363 11.1049C233.996 12.0582 233.74 12.6449 233.593 12.8649L225.013 26.2849C224.72 26.7249 224.353 27.4582 223.913 28.4849C223.84 28.7049 223.876 28.9249 224.023 29.1449C224.243 29.3649 224.5 29.4749 224.793 29.4749H224.903ZM237.091 75.8949C236.578 75.5282 236.248 74.9782 236.101 74.2449C235.955 72.9249 235.881 71.9349 235.881 71.2749C235.881 70.3215 235.955 69.0382 236.101 67.4249L236.211 64.5649C236.211 62.6582 235.808 61.7049 235.001 61.7049C234.048 61.7049 232.288 62.9882 229.721 65.5549C228.035 67.2415 226.825 68.5249 226.091 69.4049L224.331 71.2749C223.598 72.0082 222.791 72.7049 221.911 73.3649C221.618 73.6582 221.288 73.6949 220.921 73.4749C220.555 73.2549 220.371 72.9615 220.371 72.5949V72.3749C220.445 71.9349 220.591 71.4215 220.811 70.8349C221.031 70.2482 221.178 69.8082 221.251 69.5149C225.065 59.6882 229.355 49.8615 234.121 40.0349C237.641 32.7749 241.418 25.9549 245.451 19.5749C246.551 17.8149 248.018 15.7249 249.851 13.3049C250.218 12.9382 250.585 12.7549 250.951 12.7549C251.465 12.7549 251.721 12.9382 251.721 13.3049C251.721 13.5249 251.611 13.7449 251.391 13.9649C247.431 19.3915 243.141 26.5415 238.521 35.4149C235.368 41.5015 232.215 47.9182 229.061 54.6649C225.908 61.4115 224.331 65.5915 224.331 67.2049C224.331 67.7915 224.588 67.9749 225.101 67.7549C229.648 63.2082 232.655 60.4949 234.121 59.6149C234.635 59.3215 235.185 59.1749 235.771 59.1749C237.091 59.1749 237.898 60.0915 238.191 61.9249C238.191 64.8582 238.045 68.3049 237.751 72.2649C237.751 72.8515 237.898 73.4015 238.191 73.9149C238.558 74.4282 238.961 74.6849 239.401 74.6849C239.695 74.6849 239.951 74.5749 240.171 74.3549C241.638 72.8882 242.701 71.7515 243.361 70.9449L245.561 68.3049C247.321 66.1049 248.788 64.5282 249.961 63.5749C250.108 63.4282 250.291 63.4649 250.511 63.6849C250.805 63.9049 250.951 64.1615 250.951 64.4549C250.951 64.6015 250.915 64.7115 250.841 64.7849L243.141 73.9149C242.555 74.5749 241.931 75.1982 241.271 75.7849C240.685 76.2982 239.915 76.5549 238.961 76.5549C238.301 76.5549 237.678 76.3349 237.091 75.8949ZM258.181 71.2749C257.374 71.7882 255.724 72.5949 253.231 73.6949C252.497 74.0615 251.654 74.2449 250.701 74.2449C249.601 74.2449 248.721 73.9149 248.061 73.2549C247.474 72.5949 247.181 71.6782 247.181 70.5049C247.181 69.4049 247.364 68.4149 247.731 67.5349C248.831 65.1149 250.371 62.7682 252.351 60.4949C254.404 58.1482 256.164 56.9749 257.631 56.9749C257.997 56.9749 258.401 57.1215 258.841 57.4149C259.207 57.7815 259.391 58.2215 259.391 58.7349C259.391 59.3215 259.244 59.7982 258.951 60.1649C258.217 61.3382 257.191 62.4749 255.871 63.5749C254.551 64.6015 253.304 65.3715 252.131 65.8849C251.104 66.3249 250.297 66.9849 249.711 67.8649C249.197 68.7449 248.941 69.6249 248.941 70.5049C248.941 71.2382 249.161 71.8249 249.601 72.2649C250.114 72.6315 250.774 72.7049 251.581 72.4849C253.561 71.9715 255.724 70.9815 258.071 69.5149L268.081 63.0249C268.961 62.5849 269.621 62.3649 270.061 62.3649C270.427 62.3649 270.611 62.4749 270.611 62.6949C270.611 62.9882 270.281 63.4282 269.621 64.0149L265.221 66.8749C264.341 67.3882 263.314 68.0482 262.141 68.8549C260.967 69.5882 259.647 70.3949 258.181 71.2749ZM254.991 62.2549C255.651 61.6682 256.347 60.8249 257.081 59.7249C257.081 59.6515 257.007 59.5415 256.861 59.3949C256.714 59.1749 256.531 59.1749 256.311 59.3949C254.991 60.3482 254.074 61.1915 253.561 61.9249C253.121 62.6582 253.121 63.0249 253.561 63.0249C253.927 63.0249 254.404 62.7682 254.991 62.2549ZM328.362 62.9149C328.656 62.7682 329.059 62.6949 329.572 62.6949C330.012 62.6949 330.232 62.8049 330.232 63.0249C330.232 63.3182 329.792 63.7949 328.912 64.4549L315.602 71.9349C314.209 72.5949 313.109 73.6949 312.302 75.2349C310.616 78.0949 309.442 79.9649 308.782 80.8449C307.022 83.3382 305.152 85.2449 303.172 86.5649C301.192 87.9582 299.542 88.6549 298.222 88.6549C297.122 88.6549 296.572 88.1782 296.572 87.2249C296.572 85.6849 298.112 83.4849 301.192 80.6249C304.346 77.8382 307.096 75.6015 309.442 73.9149C310.982 72.8149 312.009 71.3115 312.522 69.4049C312.742 68.3782 312.852 67.3882 312.852 66.4349C312.852 65.5549 312.779 64.8949 312.632 64.4549C312.412 63.5749 311.716 63.1349 310.542 63.1349C309.296 63.1349 307.939 63.6115 306.472 64.5649C303.246 66.6915 300.276 69.0015 297.562 71.4949C295.216 73.5482 293.786 74.5749 293.272 74.5749C293.052 74.5749 292.942 74.4649 292.942 74.2449C292.942 73.8049 293.199 73.1082 293.712 72.1549C296.426 66.8015 298.992 61.4115 301.412 55.9849C303.832 50.4849 306.766 43.5915 310.212 35.3049L311.862 31.2349C312.596 29.3282 313.769 26.5415 315.382 22.8749C315.822 21.5549 316.372 20.8949 317.032 20.8949C317.326 20.8949 317.472 21.1515 317.472 21.6649C317.472 22.1782 317.326 22.7649 317.032 23.4249L315.712 26.6149C313.219 32.7749 310.579 39.1182 307.792 45.6449C305.079 52.0982 302.512 57.9649 300.092 63.2449C299.946 63.6115 299.652 64.2715 299.212 65.2249C298.772 66.1049 298.516 66.9849 298.442 67.8649C299.249 67.5715 300.129 67.0582 301.082 66.3249C302.036 65.5915 302.769 65.0415 303.282 64.6749C305.702 63.0615 307.792 61.9615 309.552 61.3749C310.139 61.2282 310.616 61.1549 310.982 61.1549C311.862 61.1549 312.632 61.4115 313.292 61.9249C313.952 62.4382 314.319 63.1349 314.392 64.0149C314.466 64.6749 314.502 65.6649 314.502 66.9849C314.502 67.2049 314.502 67.6082 314.502 68.1949C314.576 68.7815 314.686 69.2215 314.832 69.5149C315.052 69.8082 315.382 69.8449 315.822 69.6249L319.672 67.5349L328.362 62.9149ZM308.562 77.8749C308.709 77.6549 308.782 77.4349 308.782 77.2149C308.782 76.9949 308.599 76.9949 308.232 77.2149C306.326 78.3149 304.236 79.9282 301.962 82.0549C299.762 84.1815 298.992 85.5749 299.652 86.2349C300.972 86.2349 302.512 85.2815 304.272 83.3749C306.106 81.5415 307.536 79.7082 308.562 77.8749ZM333.552 59.1749C332.965 59.9815 332.379 60.9715 331.792 62.1449C330.692 64.3449 330.252 65.4449 330.472 65.4449C330.619 65.4449 331.132 65.1149 332.012 64.4549C332.892 63.7215 333.809 62.9882 334.762 62.2549C336.009 61.5215 337.109 61.1549 338.062 61.1549C338.795 61.1549 339.419 61.4115 339.932 61.9249C340.225 62.2915 340.555 62.7682 340.922 63.3549C341.362 63.9415 341.765 64.2349 342.132 64.2349C342.352 64.2349 342.499 64.1982 342.572 64.1249C342.865 64.0515 343.599 63.6115 344.772 62.8049C347.779 60.9715 349.539 60.0915 350.052 60.1649C351.079 60.0182 351.152 60.3849 350.272 61.2649C349.392 62.0715 348.109 63.0249 346.422 64.1249C344.735 65.1515 343.452 65.8115 342.572 66.1049C342.352 66.1782 342.059 66.2149 341.692 66.2149C340.812 66.2149 340.152 65.8849 339.712 65.2249C338.612 63.9049 337.585 63.2449 336.632 63.2449C335.825 63.2449 334.945 63.6482 333.992 64.4549C333.112 65.1882 331.829 66.4715 330.142 68.3049L328.602 69.9549C327.429 71.2015 326.439 72.0815 325.632 72.5949C324.825 73.1082 324.422 73.0349 324.422 72.3749C324.422 72.0815 324.532 71.6049 324.752 70.9449C328.419 64.4915 331.132 59.6149 332.892 56.3149L333.882 55.1049C334.029 55.0315 334.249 54.9949 334.542 54.9949C334.909 54.9949 335.092 55.1415 335.092 55.4349C334.872 56.3149 334.615 57.0482 334.322 57.6349C334.102 58.1482 333.845 58.6615 333.552 59.1749ZM371.585 60.7149C372.979 59.3215 373.895 58.6249 374.335 58.6249C374.629 58.6249 374.775 58.9549 374.775 59.6149C374.702 59.9082 373.529 61.1915 371.255 63.4649C368.982 65.6649 366.672 67.8649 364.325 70.0649C363.739 70.6515 362.822 71.4215 361.575 72.3749C360.329 73.2549 359.375 73.8049 358.715 74.0249C357.615 74.3182 356.882 74.0615 356.515 73.2549C356.149 72.5215 355.965 71.3482 355.965 69.7349C355.965 68.5615 356.039 66.8015 356.185 64.4549C354.059 67.1682 352.079 69.1849 350.245 70.5049C348.485 71.8249 347.019 72.4849 345.845 72.4849C345.112 72.4849 344.525 72.2282 344.085 71.7149C343.645 71.2015 343.425 70.5415 343.425 69.7349C343.425 68.0482 344.159 66.1049 345.625 63.9049C347.165 61.7049 349.439 59.6882 352.445 57.8549C353.545 57.1949 354.499 56.8649 355.305 56.8649C356.332 56.8649 357.102 57.3782 357.615 58.4049C358.202 59.4315 358.495 60.7882 358.495 62.4749C358.495 63.7215 358.312 65.3349 357.945 67.3149C357.652 68.4882 357.505 69.4782 357.505 70.2849C357.505 71.3115 357.799 71.8249 358.385 71.8249C359.192 71.8249 360.255 71.2382 361.575 70.0649C362.969 68.8182 365.022 66.9115 367.735 64.3449L369.385 62.6949L371.585 60.7149ZM354.645 61.8149C354.939 61.4482 355.085 60.9715 355.085 60.3849C355.012 59.5782 354.609 59.1749 353.875 59.1749C353.509 59.1749 353.105 59.3215 352.665 59.6149C350.245 61.4482 348.412 63.2082 347.165 64.8949C345.992 66.5082 345.405 67.7915 345.405 68.7449C345.405 69.3315 345.699 69.6249 346.285 69.6249C347.019 69.6249 348.119 69.0015 349.585 67.7549C351.052 66.4349 352.739 64.4549 354.645 61.8149ZM373.679 62.4749L372.359 65.2249C371.919 66.6182 371.699 67.4982 371.699 67.8649C371.699 68.0115 371.735 68.0849 371.809 68.0849C372.029 68.0849 372.689 67.4615 373.789 66.2149C375.549 64.3082 376.685 63.0982 377.199 62.5849C378.739 61.0449 380.095 60.2749 381.269 60.2749C382.369 60.2749 382.919 60.9715 382.919 62.3649C382.919 62.8049 382.882 63.1715 382.809 63.4649C381.855 67.5715 381.379 70.1015 381.379 71.0549C381.379 72.3015 381.745 72.9249 382.479 72.9249C383.359 72.9249 384.972 71.8615 387.319 69.7349L396.119 61.3749C396.632 60.8615 397.145 60.4582 397.659 60.1649C398.172 59.8715 398.612 59.7249 398.979 59.7249C399.199 59.7249 399.309 59.8349 399.309 60.0549C399.309 60.3482 399.089 60.7149 398.649 61.1549L387.539 71.7149C386.585 72.5949 385.559 73.3282 384.459 73.9149C383.359 74.5015 382.405 74.7949 381.599 74.7949C380.425 74.7949 379.729 74.2082 379.509 73.0349C379.435 72.6682 379.399 72.1915 379.399 71.6049C379.399 70.9449 379.509 70.0282 379.729 68.8549L380.499 64.2349C380.499 63.5749 380.242 63.2449 379.729 63.2449C379.215 63.2449 378.739 63.4649 378.299 63.9049L373.899 68.4149C373.679 68.6349 373.275 69.0382 372.689 69.6249C372.102 70.2115 371.479 70.7249 370.819 71.1649C370.232 71.5315 369.682 71.5315 369.169 71.1649C368.802 70.9449 368.619 70.5415 368.619 69.9549C368.619 69.3682 368.802 68.5615 369.169 67.5349C369.609 66.4349 370.232 65.1149 371.039 63.5749C371.845 62.0349 372.359 61.0449 372.579 60.6049C373.312 59.2115 373.972 58.2215 374.559 57.6349C375.219 57.0482 375.549 57.0482 375.549 57.6349C375.549 58.0015 375.329 58.6982 374.889 59.7249L373.679 62.4749ZM409.253 74.3549C408.666 73.8415 408.336 73.1449 408.263 72.2649C408.116 69.4782 408.483 66.2149 409.363 62.4749C409.509 61.8149 409.619 61.2282 409.693 60.7149C409.766 60.2015 409.729 59.9449 409.583 59.9449C409.363 59.9449 408.886 60.3849 408.153 61.2649C407.419 62.1449 406.943 62.7315 406.723 63.0249L400.783 69.6249L398.033 72.7049C395.319 75.6382 393.376 76.7382 392.203 76.0049C391.763 75.7115 391.543 75.0882 391.543 74.1349C391.543 72.5215 392.203 70.2849 393.523 67.4249C394.916 64.4915 396.309 62.0349 397.703 60.0549C398.876 58.6615 400.123 57.5249 401.443 56.6449C402.763 55.6915 403.863 55.2149 404.743 55.2149C405.476 55.2149 405.989 55.5449 406.283 56.2049C406.723 57.8182 407.273 58.6249 407.933 58.6249C408.593 58.6249 409.326 57.9282 410.133 56.5349C411.013 55.1415 412.223 52.8682 413.763 49.7149C416.623 42.5282 419.813 36.0382 423.333 30.2449C427.733 23.3515 430.849 19.9049 432.683 19.9049C433.049 19.9049 433.343 20.0149 433.563 20.2349C434.003 20.6749 434.223 21.1515 434.223 21.6649C434.223 22.2515 433.929 23.1315 433.343 24.3049C432.463 26.1382 431.473 27.8982 430.373 29.5849C428.099 33.2515 425.679 37.0649 423.113 41.0249C420.619 44.9115 418.199 48.3949 415.853 51.4749C414.313 53.5282 413.323 55.4715 412.883 57.3049L410.243 66.8749C409.876 68.4882 409.693 69.6982 409.693 70.5049C409.693 72.3382 410.316 73.2549 411.563 73.2549C412.809 73.2549 414.569 72.3382 416.843 70.5049L425.643 62.8049C426.376 62.2182 426.926 61.8149 427.293 61.5949C427.439 61.5215 427.659 61.5215 427.953 61.5949C428.246 61.5949 428.393 61.7415 428.393 62.0349C427.586 63.0615 426.486 64.1982 425.093 65.4449C423.773 66.6915 422.343 67.9749 420.803 69.2949C420.216 69.8082 419.556 70.3582 418.823 70.9449C418.163 71.4582 417.466 72.0815 416.733 72.8149C416.439 73.1082 415.559 73.6949 414.093 74.5749C413.213 75.0149 412.369 75.2349 411.563 75.2349C410.683 75.2349 409.913 74.9415 409.253 74.3549ZM419.923 42.4549C422.049 39.2282 425.166 34.3882 429.273 27.9349C430.153 26.5415 430.739 25.4415 431.033 24.6349C431.326 23.7549 431.326 23.3149 431.033 23.3149C430.666 23.3149 429.933 24.0115 428.833 25.4049C425.166 30.3915 422.049 35.7082 419.483 41.3549C418.749 42.8215 418.383 43.7382 418.383 44.1049C418.383 44.1782 418.419 44.2149 418.493 44.2149C418.639 44.2149 419.116 43.6282 419.923 42.4549ZM394.183 73.4749C394.403 73.4749 394.769 73.2182 395.283 72.7049C397.849 70.6515 400.159 67.9749 402.213 64.6749C404.266 61.3749 405.293 58.9549 405.293 57.4149C405.293 56.8282 405.073 56.5349 404.633 56.5349C403.899 56.5349 402.653 57.4149 400.893 59.1749C399.719 60.4215 398.509 62.1815 397.263 64.4549C396.016 66.7282 395.063 68.8182 394.403 70.7249C393.816 72.5582 393.743 73.4749 394.183 73.4749Z" fill="url(#paint0_linear_463_563)"/>
<defs>
<linearGradient id="paint0_linear_463_563" x1="13.5" y1="80.503" x2="428.707" y2="39.8255" gradientUnits="userSpaceOnUse">
<stop stop-color="#FFDE9A"/>
<stop offset="1" stop-color="#CEA764"/>
</linearGradient>
</defs>
</svg>
