<svg width="172" height="98" viewBox="0 0 172 98" fill="none" xmlns="http://www.w3.org/2000/svg">
<path d="M4.88313 67.09C3.48979 71.27 2.79313 75.34 2.79313 79.3C2.79313 80.2533 2.93979 81.3533 3.23313 82.6C3.37979 83.4067 3.78313 84.03 4.44313 84.47C5.17646 84.9833 5.98313 85.24 6.86313 85.24C8.32979 85.24 9.61313 84.9467 10.7131 84.36C13.0598 83.1133 14.9298 82.0133 16.3231 81.06C22.7031 76.66 28.7898 72.0033 34.5831 67.09C40.3031 62.1767 45.3631 57.4833 49.7631 53.01C50.3498 52.4233 50.8998 52.13 51.4131 52.13H51.6331C51.7065 52.13 51.7798 52.1667 51.8531 52.24C51.9265 52.3133 51.9631 52.3867 51.9631 52.46C51.8165 53.0467 51.6331 53.45 51.4131 53.67C49.4331 55.7233 47.4165 57.74 45.3631 59.72C36.5631 68.08 27.1765 75.67 17.2031 82.49C16.8365 82.71 15.4431 83.59 13.0231 85.13C11.5565 85.9367 9.83313 86.5233 7.85313 86.89C7.63313 86.9633 7.30313 87 6.86313 87C5.90979 87 4.95646 86.78 4.00313 86.34C3.12313 85.9 2.46313 85.3133 2.02313 84.58C1.06979 82.8933 0.629792 81.3167 0.703125 79.85C0.703125 78.2367 0.813125 76.5867 1.03313 74.9C1.91313 69.3267 4.00313 62.6533 7.30313 54.88C13.0965 41.46 21.0531 28.9933 31.1731 17.48C35.2798 13.0067 38.9465 9.45 42.1731 6.81C44.2265 5.41666 46.1698 4.13333 48.0031 2.96C49.0298 2.3 49.9831 1.97 50.8631 1.97C51.3765 1.97 51.9998 2.15333 52.7331 2.52C53.8331 3.18 54.3831 4.24333 54.3831 5.71C54.3831 7.83666 54.0165 9.85333 53.2831 11.76C51.8898 15.5 50.2765 18.8367 48.4431 21.77C46.5365 24.85 44.3365 28.1867 41.8431 31.78C41.6965 32 41.0731 32.9533 39.9731 34.64C39.8998 34.86 39.7165 35.0433 39.4231 35.19C39.2031 35.3367 39.0198 35.4833 38.8731 35.63C38.7998 35.7033 38.6898 35.74 38.5431 35.74C38.4698 35.74 38.3965 35.7033 38.3231 35.63C38.1031 35.41 38.0298 35.3 38.1031 35.3C38.1765 35.08 38.2498 34.7867 38.3231 34.42C38.4698 33.98 38.6165 33.65 38.7631 33.43L43.7131 26.17C46.4265 22.1367 48.6998 17.9933 50.5331 13.74C50.6798 13.3 50.9365 12.64 51.3031 11.76C51.6698 10.88 51.9998 9.96333 52.2931 9.01C52.5865 8.05667 52.7331 7.10333 52.7331 6.15C52.7331 5.41666 52.4765 4.79333 51.9631 4.27999C51.5965 4.06 51.1565 3.95 50.6431 3.95C49.7631 3.95 48.9565 4.20666 48.2231 4.72C46.3165 5.89333 44.5931 7.10333 43.0531 8.35C39.5331 11.21 36.1231 14.5467 32.8231 18.36C19.5498 33.4667 10.2365 49.71 4.88313 67.09ZM72.2289 53.23C73.6222 51.8367 74.5389 51.14 74.9789 51.14C75.2722 51.14 75.4189 51.47 75.4189 52.13C75.3456 52.4233 74.1722 53.7067 71.8989 55.98C69.6256 58.18 67.3156 60.38 64.9689 62.58C64.3822 63.1667 63.4656 63.9367 62.2189 64.89C60.9722 65.77 60.0189 66.32 59.3589 66.54C58.2589 66.8333 57.5256 66.5767 57.1589 65.77C56.7922 65.0367 56.6089 63.8633 56.6089 62.25C56.6089 61.0767 56.6822 59.3167 56.8289 56.97C54.7022 59.6833 52.7222 61.7 50.8889 63.02C49.1289 64.34 47.6622 65 46.4889 65C45.7556 65 45.1689 64.7433 44.7289 64.23C44.2889 63.7167 44.0689 63.0567 44.0689 62.25C44.0689 60.5633 44.8022 58.62 46.2689 56.42C47.8089 54.22 50.0822 52.2033 53.0889 50.37C54.1889 49.71 55.1422 49.38 55.9489 49.38C56.9756 49.38 57.7456 49.8933 58.2589 50.92C58.8456 51.9467 59.1389 53.3033 59.1389 54.99C59.1389 56.2367 58.9556 57.85 58.5889 59.83C58.2956 61.0033 58.1489 61.9933 58.1489 62.8C58.1489 63.8267 58.4422 64.34 59.0289 64.34C59.8356 64.34 60.8989 63.7533 62.2189 62.58C63.6122 61.3333 65.6656 59.4267 68.3789 56.86L70.0289 55.21L72.2289 53.23ZM55.2889 54.33C55.5822 53.9633 55.7289 53.4867 55.7289 52.9C55.6556 52.0933 55.2522 51.69 54.5189 51.69C54.1522 51.69 53.7489 51.8367 53.3089 52.13C50.8889 53.9633 49.0556 55.7233 47.8089 57.41C46.6356 59.0233 46.0489 60.3067 46.0489 61.26C46.0489 61.8467 46.3422 62.14 46.9289 62.14C47.6622 62.14 48.7622 61.5167 50.2289 60.27C51.6956 58.95 53.3822 56.97 55.2889 54.33ZM92.8023 21.99L97.6423 21.55C99.2557 21.55 100.612 21.5867 101.712 21.66C101.859 21.66 101.969 21.7333 102.042 21.88C102.116 21.9533 102.152 21.99 102.152 21.99C102.079 22.0633 101.969 22.21 101.822 22.43C101.749 22.5767 101.639 22.65 101.492 22.65L91.4823 23.97C90.6023 24.0433 89.8323 24.4833 89.1723 25.29C88.9523 25.5833 88.6957 26.0233 88.4023 26.61C85.3223 32.0367 82.6823 36.9867 80.4823 41.46C78.2823 45.86 76.339 50.2967 74.6523 54.77C72.6723 60.1233 71.6823 63.8633 71.6823 65.99C71.6823 67.6033 72.1957 68.41 73.2223 68.41C74.8357 68.41 77.7323 66.4667 81.9123 62.58C83.3057 61.3333 84.5157 60.16 85.5423 59.06C86.6423 57.96 87.6323 57.0067 88.5123 56.2L91.8123 53.01C92.839 52.2033 93.609 51.8 94.1223 51.8C94.3423 51.8 94.4523 51.91 94.4523 52.13C94.4523 52.35 94.3423 52.68 94.1223 53.12C88.329 58.7667 83.5623 63.0933 79.8223 66.1C76.1557 69.1067 73.4423 70.61 71.6823 70.61C70.289 70.61 69.5923 69.5467 69.5923 67.42C69.5923 65.0733 70.399 61.4433 72.0123 56.53C73.4057 52.6433 74.9457 48.8667 76.6323 45.2C78.3923 41.5333 80.8123 36.7667 83.8923 30.9C84.479 29.8 85.2857 28.15 86.3123 25.95C86.3857 25.8033 86.3123 25.62 86.0923 25.4C85.8723 25.1067 85.6523 24.96 85.4323 24.96H83.6723C80.0057 25.6933 77.2557 26.2067 75.4223 26.5C72.6357 26.7933 70.5823 26.9767 69.2623 27.05C69.1157 27.05 68.9323 26.9767 68.7123 26.83C68.5657 26.61 68.4923 26.39 68.4923 26.17C68.4923 25.8767 68.6757 25.73 69.0423 25.73L84.1123 23.42L85.2123 23.31C87.4123 23.0167 88.989 21.99 89.9423 20.23C93.0957 15.0233 96.1023 10.2567 98.9623 5.93C99.0357 5.78333 99.2923 5.38 99.7323 4.72C100.172 4.06 100.722 3.54666 101.382 3.18H101.932C102.152 3.4 102.262 3.54666 102.262 3.62C101.896 4.57333 101.639 5.16 101.492 5.37999L92.9123 18.8C92.619 19.24 92.2523 19.9733 91.8123 21C91.739 21.22 91.7757 21.44 91.9223 21.66C92.1423 21.88 92.399 21.99 92.6923 21.99H92.8023ZM114.231 53.23C115.624 51.8367 116.541 51.14 116.981 51.14C117.274 51.14 117.421 51.47 117.421 52.13C117.348 52.4233 116.174 53.7067 113.901 55.98C111.628 58.18 109.318 60.38 106.971 62.58C106.384 63.1667 105.468 63.9367 104.221 64.89C102.974 65.77 102.021 66.32 101.361 66.54C100.261 66.8333 99.5275 66.5767 99.1609 65.77C98.7942 65.0367 98.6109 63.8633 98.6109 62.25C98.6109 61.0767 98.6842 59.3167 98.8309 56.97C96.7042 59.6833 94.7242 61.7 92.8909 63.02C91.1309 64.34 89.6642 65 88.4909 65C87.7575 65 87.1709 64.7433 86.7309 64.23C86.2909 63.7167 86.0709 63.0567 86.0709 62.25C86.0709 60.5633 86.8042 58.62 88.2709 56.42C89.8109 54.22 92.0842 52.2033 95.0909 50.37C96.1909 49.71 97.1442 49.38 97.9509 49.38C98.9775 49.38 99.7475 49.8933 100.261 50.92C100.848 51.9467 101.141 53.3033 101.141 54.99C101.141 56.2367 100.958 57.85 100.591 59.83C100.298 61.0033 100.151 61.9933 100.151 62.8C100.151 63.8267 100.444 64.34 101.031 64.34C101.838 64.34 102.901 63.7533 104.221 62.58C105.614 61.3333 107.668 59.4267 110.381 56.86L112.031 55.21L114.231 53.23ZM97.2909 54.33C97.5842 53.9633 97.7309 53.4867 97.7309 52.9C97.6575 52.0933 97.2542 51.69 96.5209 51.69C96.1542 51.69 95.7509 51.8367 95.3109 52.13C92.8909 53.9633 91.0575 55.7233 89.8109 57.41C88.6375 59.0233 88.0509 60.3067 88.0509 61.26C88.0509 61.8467 88.3442 62.14 88.9309 62.14C89.6642 62.14 90.7642 61.5167 92.2309 60.27C93.6975 58.95 95.3842 56.97 97.2909 54.33ZM114.344 69.4C113.318 69.4 112.584 68.8867 112.144 67.86C111.924 67.3467 111.814 66.76 111.814 66.1C111.814 65.1467 112.034 63.9 112.474 62.36C112.914 60.82 113.208 59.7567 113.354 59.17C114.894 53.3767 117.754 45.75 121.934 36.29C126.848 25.2167 132.934 14.07 140.194 2.85C140.414 2.48333 140.818 1.93333 141.404 1.2C141.698 0.906661 141.954 0.833329 142.174 0.979998C142.394 1.12666 142.504 1.38333 142.504 1.74999C142.504 2.26333 142.321 2.81333 141.954 3.4C137.848 9.78 134.071 16.2333 130.624 22.76C125.418 32.2933 120.798 42.7433 116.764 54.11C116.251 55.65 115.554 58.0333 114.674 61.26C114.234 62.8733 114.014 64.1567 114.014 65.11C114.014 66.43 114.418 67.09 115.224 67.09C117.278 67.09 120.908 64.23 126.114 58.51C128.388 56.0167 130.221 54.1833 131.614 53.01C133.081 51.7633 133.998 51.14 134.364 51.14C134.804 51.14 134.401 51.9833 133.154 53.67C131.908 55.2833 130.074 57.3 127.654 59.72C125.308 62.14 122.741 64.45 119.954 66.65C117.681 68.4833 115.811 69.4 114.344 69.4ZM131.964 58.18V57.63C131.817 56.75 131.744 56.09 131.744 55.65C131.744 53.23 132.477 51.25 133.944 49.71C135.484 48.17 137.134 47.4 138.894 47.4C140.361 47.4 141.571 47.9867 142.524 49.16C143.551 50.3333 144.064 52.0933 144.064 54.44C144.064 55.0267 143.991 55.98 143.844 57.3C143.844 57.74 144.137 57.8133 144.724 57.52C145.311 57.2267 146.264 56.64 147.584 55.76L150.554 53.89C150.701 53.7433 150.847 53.7433 150.994 53.89C151.141 53.9633 151.214 54.1467 151.214 54.44C151.214 54.88 151.031 55.2833 150.664 55.65C148.831 57.3367 146.777 58.73 144.504 59.83C142.231 60.93 140.471 62.1767 139.224 63.57C138.344 64.45 137.354 65.1467 136.254 65.66C135.227 66.2467 134.311 66.54 133.504 66.54C131.817 66.54 130.974 65.5133 130.974 63.46L131.084 62.47C131.157 62.03 131.267 61.5167 131.414 60.93C131.634 60.3433 131.781 59.9033 131.854 59.61C131.927 59.3167 131.964 58.84 131.964 58.18ZM139.994 49.05C139.407 49.05 138.784 49.27 138.124 49.71C136.877 50.37 135.887 51.25 135.154 52.35C134.421 53.45 134.054 54.66 134.054 55.98C134.054 56.3467 134.127 56.8967 134.274 57.63C134.347 58.2167 134.677 58.73 135.264 59.17C135.924 59.61 136.621 59.83 137.354 59.83C139.041 59.83 140.361 59.17 141.314 57.85C142.267 56.53 142.744 55.0267 142.744 53.34C142.744 52.1667 142.487 51.1767 141.974 50.37C141.534 49.49 140.874 49.05 139.994 49.05ZM133.724 61.48C133.431 61.6267 133.284 61.81 133.284 62.03C133.284 62.1033 133.247 62.2867 133.174 62.58C133.101 62.8 133.064 63.0933 133.064 63.46C133.137 63.7533 133.284 64.0467 133.504 64.34C133.724 64.56 133.981 64.67 134.274 64.67C134.421 64.67 134.641 64.5967 134.934 64.45C135.594 64.1567 136.327 63.68 137.134 63.02C137.427 62.7267 137.391 62.4333 137.024 62.14C135.704 61.6267 134.861 61.3333 134.494 61.26C134.274 61.1867 134.017 61.26 133.724 61.48ZM159.888 57.08L155.048 66.43C150.208 74.8633 147.788 79.3367 147.788 79.85C147.788 80.1433 148.521 79.3733 149.988 77.54C151.454 75.7067 153.251 73.3967 155.378 70.61C158.311 66.7233 162.271 61.59 167.258 55.21C167.478 54.99 167.771 54.66 168.138 54.22C168.578 53.7067 169.054 53.1567 169.568 52.57C170.154 51.9833 170.631 51.69 170.998 51.69C171.218 51.69 171.401 51.9833 171.548 52.57C171.254 53.1567 170.998 53.56 170.778 53.78C166.891 58.3267 163.334 62.58 160.108 66.54C153.801 74.24 148.008 82.5267 142.728 91.4C141.848 92.94 140.858 94.3333 139.758 95.58C138.658 96.8267 138.108 96.9 138.108 95.8C138.254 95.0667 138.474 94.4433 138.768 93.93C142.801 85.35 146.944 77.2467 151.198 69.62L154.058 64.56C154.278 64.12 154.461 63.7533 154.608 63.46C154.828 63.0933 155.011 62.7633 155.158 62.47C157.358 58.1433 158.458 55.5767 158.458 54.77C158.458 54.1833 157.944 54.33 156.918 55.21C155.891 56.09 154.204 57.7033 151.858 60.05L149.438 62.47C147.311 64.5233 145.698 65.55 144.598 65.55C143.864 65.55 143.498 65.0367 143.498 64.01C143.498 62.69 144.048 60.9667 145.148 58.84C146.321 56.64 147.751 54.7333 149.438 53.12C151.124 51.4333 152.811 50.59 154.498 50.59C155.084 50.59 155.634 50.7 156.148 50.92C156.734 51.2867 157.431 51.5067 158.238 51.58C159.044 51.6533 159.594 51.7267 159.888 51.8C160.181 51.8733 160.438 52.0567 160.658 52.35C160.951 52.6433 161.098 52.9 161.098 53.12V53.23C160.658 54.99 160.254 56.2733 159.888 57.08ZM155.268 53.89C155.341 53.8167 155.378 53.67 155.378 53.45C155.378 52.7167 155.158 52.35 154.718 52.35C153.764 52.35 152.334 53.4133 150.428 55.54C148.521 57.6667 147.054 59.7567 146.028 61.81C145.954 62.03 145.954 62.2133 146.028 62.36C146.174 62.5067 146.321 62.58 146.468 62.58C146.614 62.58 146.761 62.5067 146.908 62.36L155.268 53.89Z" fill="url(#paint0_linear_463_659)"/>
<defs>
<linearGradient id="paint0_linear_463_659" x1="-10.5" y1="73.0182" x2="167.527" y2="65.5982" gradientUnits="userSpaceOnUse">
<stop stop-color="#FFDE9A"/>
<stop offset="1" stop-color="#CEA764"/>
</linearGradient>
</defs>
</svg>
