<svg width="418" height="113" viewBox="0 0 418 113" fill="none" xmlns="http://www.w3.org/2000/svg">
<path d="M114.877 31.4834C112.237 40.3567 108.533 49.34 103.767 58.4334L102.557 60.5234C102.117 61.2567 101.677 62.0267 101.237 62.8334C100.87 63.64 100.613 64.41 100.467 65.1434C101.2 65.07 101.897 64.7767 102.557 64.2634C103.29 63.6767 103.84 63.2734 104.207 63.0534C110.587 58.58 114.07 56.3434 114.657 56.3434C115.463 56.3434 111.503 59.6067 102.777 66.1334C98.5967 69.0667 95.2233 72.5867 92.6567 76.6934C87.8167 84.3201 82.0967 91.4701 75.4967 98.1434C71.0233 102.763 66.5867 106.577 62.1867 109.583C61.4533 110.097 60.5367 110.647 59.4367 111.233C58.3367 111.82 57.53 112.26 57.0167 112.553C56.7233 112.7 56.1733 112.773 55.3667 112.773H55.0367C54.5233 112.773 54.0833 112.553 53.7167 112.113C53.35 111.747 53.24 111.343 53.3867 110.903C53.46 110.683 53.57 110.28 53.7167 109.693C53.9367 109.107 54.1933 108.593 54.4867 108.153C55.5867 106.393 56.7967 104.743 58.1167 103.203C59.51 101.443 61.16 99.6101 63.0667 97.7034C64.9733 95.87 66.88 94.0734 68.7867 92.3134C75.3867 86.1534 83.0867 79.5534 91.8867 72.5134C93.94 70.9 95.5533 69.1401 96.7267 67.2334C104.5 54.3267 110.037 41.8967 113.337 29.9434C114.29 26.4967 115.17 22.1334 115.977 16.8534C116.123 15.5334 116.197 14.58 116.197 13.9934C116.197 11.8667 115.867 9.70338 115.207 7.50338C114.62 5.74338 113.557 4.42338 112.017 3.54338C110.55 2.59004 108.79 2.11338 106.737 2.11338C104.683 2.11338 101.75 2.55338 97.9367 3.43338C94.3433 4.38671 90.3467 5.81671 85.9467 7.72338C75.9 12.1234 65.5233 17.8434 54.8167 24.8834C39.93 34.5634 26.2533 45.38 13.7867 57.3334C8.43333 62.6134 4.32667 67.1234 1.46667 70.8634C1.39333 70.9367 1.24667 71.01 1.02667 71.0834C0.806669 71.1567 0.623335 71.1934 0.476669 71.1934H0.366667C0.146667 71.1934 0.0366677 71.0467 0.0366677 70.7534C-0.0366669 70.46 -7.30157e-07 70.1667 0.146666 69.8734C0.586667 69.1401 0.953335 68.59 1.24667 68.2234C3.59334 65.4367 4.84 63.9701 4.98667 63.8234C9.9 58.5434 15.7667 52.97 22.5867 47.1034C36.3 35.2234 50.5633 24.9934 65.3767 16.4134C74.1033 11.3534 82.17 7.39338 89.5767 4.53338C93.0233 3.06671 96.58 1.96671 100.247 1.23338C102.227 0.720044 104.317 0.463379 106.517 0.463379C111.43 0.463379 114.73 2.18671 116.417 5.63338C117.15 7.02671 117.59 8.93338 117.737 11.3534C118.03 17.44 117.077 24.15 114.877 31.4834ZM89.0267 78.7834C89.76 77.9767 90.1633 77.06 90.2367 76.0334L80.1167 84.6134C72.1233 91.5067 66.0733 97.1167 61.9667 101.443C59.4 104.157 57.4933 106.613 56.2467 108.813C56.0267 109.033 55.8433 109.473 55.6967 110.133L55.9167 110.573C56.1367 110.793 56.2833 110.83 56.3567 110.683C56.5767 110.683 56.8333 110.647 57.1267 110.573C57.4933 110.5 57.7867 110.427 58.0067 110.353C60.5733 108.813 63.4333 106.723 66.5867 104.083C74.2867 97.6301 81.7667 89.1967 89.0267 78.7834Z" fill="url(#paint0_linear_463_921)"/>
<path d="M118.574 66.1334C117.987 66.7201 117.327 67.3434 116.594 68.0034C114.027 70.35 112.047 71.5234 110.654 71.5234C109.554 71.5234 109.004 70.79 109.004 69.3234C109.004 68.0034 109.407 66.3167 110.214 64.2634C111.094 62.1367 112.304 59.9001 113.844 57.5534C114.21 57.1867 114.504 57.0034 114.724 57.0034C114.87 57.0034 114.944 57.1501 114.944 57.4434C114.944 57.7367 114.724 58.5434 114.284 59.8634L111.974 66.0234C111.754 66.6834 111.644 67.2334 111.644 67.6734C111.644 68.3334 111.864 68.6634 112.304 68.6634C112.89 68.6634 113.77 68.1867 114.944 67.2334L121.214 60.8534C122.534 59.5334 123.597 58.8734 124.404 58.8734C125.064 58.8734 125.394 59.3867 125.394 60.4134C125.394 60.9267 125.357 61.3667 125.284 61.7334C124.99 62.6867 124.477 64.1167 123.744 66.0234C123.157 67.5634 122.864 68.9201 122.864 70.0934C122.864 70.9 123.12 71.3034 123.634 71.3034C124.587 71.3034 126.127 70.0934 128.254 67.6734L135.624 58.8734C135.99 58.5067 136.504 58.3234 137.164 58.3234C137.677 58.3234 137.934 58.4334 137.934 58.6534C137.934 58.7267 137.86 58.8367 137.714 58.9834L127.594 70.9734C125.907 72.8067 124.404 73.7234 123.084 73.7234C121.69 73.7234 120.994 72.6234 120.994 70.4234C120.994 69.7634 121.03 69.2134 121.104 68.7734C121.544 67.0134 121.91 65.6567 122.204 64.7034C122.497 63.6767 122.68 62.9434 122.754 62.5034C122.754 62.0634 121.91 62.7234 120.224 64.4834C119.71 64.9234 119.16 65.4734 118.574 66.1334Z" fill="url(#paint1_linear_463_921)"/>
<path d="M135.711 75.8134C135.711 75.8134 136.701 74.6034 138.681 72.1834C139.121 71.5234 139.341 71.01 139.341 70.6434C139.341 70.35 139.121 70.1301 138.681 69.9834C138.315 69.8367 137.691 69.69 136.811 69.5434C135.931 69.3234 135.125 69.0301 134.391 68.6634C133.365 68.2234 132.851 67.3801 132.851 66.1334C132.851 64.5201 133.511 62.6867 134.831 60.6334C136.151 58.5067 137.691 56.8567 139.451 55.6834C139.745 55.5367 140.075 55.5734 140.441 55.7934C140.661 56.16 140.735 56.4534 140.661 56.6734C140.588 56.82 140.368 57.0034 140.001 57.2234C139.708 57.37 139.488 57.5534 139.341 57.7734C139.048 58.14 138.608 58.6534 138.021 59.3134C137.508 59.9 137.105 60.4501 136.811 60.9634C135.345 63.09 134.611 64.6667 134.611 65.6934C134.611 66.5734 135.051 67.1967 135.931 67.5634C137.105 67.9301 138.168 68.2234 139.121 68.4434C139.415 68.5167 139.818 68.5534 140.331 68.5534C141.505 68.5534 142.458 68.1867 143.191 67.4534C143.631 67.0134 144.401 66.2067 145.501 65.0334C146.675 63.7867 147.885 62.8334 149.131 62.1734C149.278 62.0267 149.461 62.0267 149.681 62.1734C149.901 62.32 150.011 62.5034 150.011 62.7234C150.011 62.87 149.975 62.98 149.901 63.0534C149.755 63.2001 149.608 63.3834 149.461 63.6034C149.315 63.8234 149.131 64.0434 148.911 64.2634L146.271 66.7934C145.098 67.82 144.511 68.8467 144.511 69.8734C144.511 70.4601 144.585 70.9 144.731 71.1934C144.878 71.6334 144.951 71.9634 144.951 72.1834C144.951 72.99 144.695 73.7601 144.181 74.4934C142.641 77.2067 140.588 79.7001 138.021 81.9734C135.528 84.32 133.658 85.4934 132.411 85.4934C131.751 85.4934 131.421 85.09 131.421 84.2834C131.421 83.4767 131.605 82.67 131.971 81.8634C132.705 80.03 133.951 78.0134 135.711 75.8134ZM141.101 72.2934C138.535 74.86 136.445 77.5367 134.831 80.3234C134.245 81.2767 133.951 82.0467 133.951 82.6334C133.951 82.8534 134.025 82.9634 134.171 82.9634C134.905 82.9634 136.261 81.8634 138.241 79.6634C140.221 77.4634 141.761 75.19 142.861 72.8434C142.935 72.6234 142.861 72.4034 142.641 72.1834C142.495 71.9634 142.275 71.8534 141.981 71.8534C141.688 71.8534 141.395 72 141.101 72.2934Z" fill="url(#paint2_linear_463_921)"/>
<path d="M169.591 28.5134L174.431 28.0734C176.045 28.0734 177.401 28.11 178.501 28.1834C178.648 28.1834 178.758 28.2567 178.831 28.4034C178.905 28.4767 178.941 28.5134 178.941 28.5134C178.868 28.5867 178.758 28.7334 178.611 28.9534C178.538 29.1 178.428 29.1734 178.281 29.1734L168.271 30.4934C167.391 30.5667 166.621 31.0067 165.961 31.8134C165.741 32.1067 165.485 32.5467 165.191 33.1334C162.111 38.56 159.471 43.51 157.271 47.9834C155.071 52.3834 153.128 56.82 151.441 61.2934C149.461 66.6467 148.471 70.3867 148.471 72.5134C148.471 74.1267 148.985 74.9334 150.011 74.9334C151.625 74.9334 154.521 72.99 158.701 69.1034C160.095 67.8567 161.305 66.6834 162.331 65.5834C163.431 64.4834 164.421 63.53 165.301 62.7234L168.601 59.5334C169.628 58.7267 170.398 58.3234 170.911 58.3234C171.131 58.3234 171.241 58.4334 171.241 58.6534C171.241 58.8734 171.131 59.2034 170.911 59.6434C165.118 65.29 160.351 69.6167 156.611 72.6234C152.945 75.6301 150.231 77.1334 148.471 77.1334C147.078 77.1334 146.381 76.07 146.381 73.9434C146.381 71.5967 147.188 67.9667 148.801 63.0534C150.195 59.1667 151.735 55.39 153.421 51.7234C155.181 48.0567 157.601 43.29 160.681 37.4234C161.268 36.3234 162.075 34.6734 163.101 32.4734C163.175 32.3267 163.101 32.1434 162.881 31.9234C162.661 31.63 162.441 31.4834 162.221 31.4834H160.461C156.795 32.2167 154.045 32.73 152.211 33.0234C149.425 33.3167 147.371 33.5 146.051 33.5734C145.905 33.5734 145.721 33.5 145.501 33.3534C145.355 33.1334 145.281 32.9134 145.281 32.6934C145.281 32.4 145.465 32.2534 145.831 32.2534L160.901 29.9434L162.001 29.8334C164.201 29.54 165.778 28.5134 166.731 26.7534C169.885 21.5467 172.891 16.78 175.751 12.4534C175.825 12.3067 176.081 11.9034 176.521 11.2434C176.961 10.5834 177.511 10.07 178.171 9.70338H178.721C178.941 9.92338 179.051 10.07 179.051 10.1434C178.685 11.0967 178.428 11.6834 178.281 11.9034L169.701 25.3234C169.408 25.7634 169.041 26.4967 168.601 27.5234C168.528 27.7434 168.565 27.9634 168.711 28.1834C168.931 28.4034 169.188 28.5134 169.481 28.5134H169.591Z" fill="url(#paint3_linear_463_921)"/>
<path d="M207.74 73.3934C207.153 72.88 206.823 72.1834 206.75 71.3034C206.603 68.5167 206.97 65.2534 207.85 61.5134C207.997 60.8534 208.107 60.2667 208.18 59.7534C208.253 59.24 208.217 58.9834 208.07 58.9834C207.85 58.9834 207.373 59.4234 206.64 60.3034C205.907 61.1834 205.43 61.77 205.21 62.0634L199.27 68.6634L196.52 71.7434C193.807 74.6767 191.863 75.7767 190.69 75.0434C190.25 74.75 190.03 74.1267 190.03 73.1734C190.03 71.5601 190.69 69.3234 192.01 66.4634C193.403 63.53 194.797 61.0734 196.19 59.0934C197.363 57.7 198.61 56.5634 199.93 55.6834C201.25 54.73 202.35 54.2534 203.23 54.2534C203.963 54.2534 204.477 54.5834 204.77 55.2434C205.21 56.8567 205.76 57.6634 206.42 57.6634C207.08 57.6634 207.813 56.9667 208.62 55.5734C209.5 54.18 210.71 51.9067 212.25 48.7534C215.11 41.5667 218.3 35.0767 221.82 29.2834C226.22 22.39 229.337 18.9434 231.17 18.9434C231.537 18.9434 231.83 19.0534 232.05 19.2734C232.49 19.7134 232.71 20.19 232.71 20.7034C232.71 21.29 232.417 22.17 231.83 23.3434C230.95 25.1767 229.96 26.9367 228.86 28.6234C226.587 32.29 224.167 36.1034 221.6 40.0634C219.107 43.95 216.687 47.4334 214.34 50.5134C212.8 52.5667 211.81 54.51 211.37 56.3434L208.73 65.9134C208.363 67.5267 208.18 68.7367 208.18 69.5434C208.18 71.3767 208.803 72.2934 210.05 72.2934C211.297 72.2934 213.057 71.3767 215.33 69.5434L224.13 61.8434C224.863 61.2567 225.413 60.8534 225.78 60.6334C225.927 60.56 226.147 60.56 226.44 60.6334C226.733 60.6334 226.88 60.78 226.88 61.0734C226.073 62.1 224.973 63.2367 223.58 64.4834C222.26 65.73 220.83 67.0134 219.29 68.3334C218.703 68.8467 218.043 69.3967 217.31 69.9834C216.65 70.4967 215.953 71.12 215.22 71.8534C214.927 72.1467 214.047 72.7334 212.58 73.6134C211.7 74.0534 210.857 74.2734 210.05 74.2734C209.17 74.2734 208.4 73.98 207.74 73.3934ZM218.41 41.4934C220.537 38.2667 223.653 33.4267 227.76 26.9734C228.64 25.58 229.227 24.48 229.52 23.6734C229.813 22.7934 229.813 22.3534 229.52 22.3534C229.153 22.3534 228.42 23.05 227.32 24.4434C223.653 29.43 220.537 34.7467 217.97 40.3934C217.237 41.86 216.87 42.7767 216.87 43.1434C216.87 43.2167 216.907 43.2534 216.98 43.2534C217.127 43.2534 217.603 42.6667 218.41 41.4934ZM192.67 72.5134C192.89 72.5134 193.257 72.2567 193.77 71.7434C196.337 69.69 198.647 67.0134 200.7 63.7134C202.753 60.4134 203.78 57.9934 203.78 56.4534C203.78 55.8667 203.56 55.5734 203.12 55.5734C202.387 55.5734 201.14 56.4534 199.38 58.2134C198.207 59.46 196.997 61.22 195.75 63.4934C194.503 65.7667 193.55 67.8567 192.89 69.7634C192.303 71.5967 192.23 72.5134 192.67 72.5134Z" fill="url(#paint4_linear_463_921)"/>
<path d="M226.585 64.7034V64.1534C226.438 63.2734 226.365 62.6134 226.365 62.1734C226.365 59.7534 227.098 57.7734 228.565 56.2334C230.105 54.6934 231.755 53.9234 233.515 53.9234C234.982 53.9234 236.192 54.51 237.145 55.6834C238.172 56.8567 238.685 58.6167 238.685 60.9634C238.685 61.55 238.612 62.5034 238.465 63.8234C238.465 64.2634 238.758 64.3367 239.345 64.0434C239.932 63.75 240.885 63.1634 242.205 62.2834L245.175 60.4134C245.322 60.2667 245.468 60.2667 245.615 60.4134C245.762 60.4867 245.835 60.67 245.835 60.9634C245.835 61.4034 245.652 61.8067 245.285 62.1734C243.452 63.86 241.398 65.2534 239.125 66.3534C236.852 67.4534 235.092 68.7001 233.845 70.0934C232.965 70.9734 231.975 71.67 230.875 72.1834C229.848 72.7701 228.932 73.0634 228.125 73.0634C226.438 73.0634 225.595 72.0367 225.595 69.9834L225.705 68.9934C225.778 68.5534 225.888 68.0401 226.035 67.4534C226.255 66.8667 226.402 66.4267 226.475 66.1334C226.548 65.84 226.585 65.3634 226.585 64.7034ZM234.615 55.5734C234.028 55.5734 233.405 55.7934 232.745 56.2334C231.498 56.8934 230.508 57.7734 229.775 58.8734C229.042 59.9734 228.675 61.1834 228.675 62.5034C228.675 62.87 228.748 63.42 228.895 64.1534C228.968 64.7401 229.298 65.2534 229.885 65.6934C230.545 66.1334 231.242 66.3534 231.975 66.3534C233.662 66.3534 234.982 65.6934 235.935 64.3734C236.888 63.0534 237.365 61.55 237.365 59.8634C237.365 58.69 237.108 57.7001 236.595 56.8934C236.155 56.0134 235.495 55.5734 234.615 55.5734ZM228.345 68.0034C228.052 68.15 227.905 68.3334 227.905 68.5534C227.905 68.6267 227.868 68.81 227.795 69.1034C227.722 69.3234 227.685 69.6167 227.685 69.9834C227.758 70.2767 227.905 70.57 228.125 70.8634C228.345 71.0834 228.602 71.1934 228.895 71.1934C229.042 71.1934 229.262 71.12 229.555 70.9734C230.215 70.68 230.948 70.2034 231.755 69.5434C232.048 69.25 232.012 68.9567 231.645 68.6634C230.325 68.15 229.482 67.8567 229.115 67.7834C228.895 67.71 228.638 67.7834 228.345 68.0034Z" fill="url(#paint5_linear_463_921)"/>
<path d="M284.869 42.7034L285.199 43.1434C285.199 43.2167 285.199 43.29 285.199 43.3634C285.272 43.4367 285.272 43.51 285.199 43.5834C284.099 45.5634 282.889 47.5434 281.569 49.5234C281.349 49.89 281.019 50.0734 280.579 50.0734C280.432 50.0734 280.359 50.0367 280.359 49.9634C280.359 49.89 280.285 49.7434 280.139 49.5234C280.065 49.3034 280.065 49.1567 280.139 49.0834C280.652 48.0567 281.495 46.59 282.669 44.6834C282.815 44.4634 283.402 43.84 284.429 42.8134C284.502 42.74 284.649 42.7034 284.869 42.7034ZM271.669 63.9334C272.402 61.7334 273.465 59.5334 274.859 57.3334C274.932 56.9667 275.225 56.7834 275.739 56.7834C276.032 56.7834 276.289 56.8567 276.509 57.0034C276.729 57.0767 276.839 57.1867 276.839 57.3334L276.729 57.5534C274.969 60.5601 273.722 63.2734 272.989 65.6934C272.475 67.3067 272.219 68.6634 272.219 69.7634C272.219 71.01 272.659 71.6334 273.539 71.6334C274.272 71.6334 275.335 71.1934 276.729 70.3134C278.122 69.3601 280.175 67.82 282.889 65.6934L286.739 62.7234C287.032 62.5767 287.252 62.5767 287.399 62.7234C287.619 62.87 287.729 63.09 287.729 63.3834C287.655 63.53 287.582 63.6767 287.509 63.8234C287.435 63.9701 287.325 64.1167 287.179 64.2634L277.719 72.0734C276.105 73.3934 274.639 74.0534 273.319 74.0534C271.485 74.0534 270.569 72.6234 270.569 69.7634C270.569 68.0767 270.935 66.1334 271.669 63.9334Z" fill="url(#paint6_linear_463_921)"/>
<path d="M307.736 28.5134L312.576 28.0734C314.189 28.0734 315.546 28.11 316.646 28.1834C316.793 28.1834 316.903 28.2567 316.976 28.4034C317.049 28.4767 317.086 28.5134 317.086 28.5134C317.013 28.5867 316.903 28.7334 316.756 28.9534C316.683 29.1 316.573 29.1734 316.426 29.1734L306.416 30.4934C305.536 30.5667 304.766 31.0067 304.106 31.8134C303.886 32.1067 303.629 32.5467 303.336 33.1334C300.256 38.56 297.616 43.51 295.416 47.9834C293.216 52.3834 291.273 56.82 289.586 61.2934C287.606 66.6467 286.616 70.3867 286.616 72.5134C286.616 74.1267 287.129 74.9334 288.156 74.9334C289.769 74.9334 292.666 72.99 296.846 69.1034C298.239 67.8567 299.449 66.6834 300.476 65.5834C301.576 64.4834 302.566 63.53 303.446 62.7234L306.746 59.5334C307.773 58.7267 308.543 58.3234 309.056 58.3234C309.276 58.3234 309.386 58.4334 309.386 58.6534C309.386 58.8734 309.276 59.2034 309.056 59.6434C303.263 65.29 298.496 69.6167 294.756 72.6234C291.089 75.6301 288.376 77.1334 286.616 77.1334C285.223 77.1334 284.526 76.07 284.526 73.9434C284.526 71.5967 285.333 67.9667 286.946 63.0534C288.339 59.1667 289.879 55.39 291.566 51.7234C293.326 48.0567 295.746 43.29 298.826 37.4234C299.413 36.3234 300.219 34.6734 301.246 32.4734C301.319 32.3267 301.246 32.1434 301.026 31.9234C300.806 31.63 300.586 31.4834 300.366 31.4834H298.606C294.939 32.2167 292.189 32.73 290.356 33.0234C287.569 33.3167 285.516 33.5 284.196 33.5734C284.049 33.5734 283.866 33.5 283.646 33.3534C283.499 33.1334 283.426 32.9134 283.426 32.6934C283.426 32.4 283.609 32.2534 283.976 32.2534L299.046 29.9434L300.146 29.8334C302.346 29.54 303.923 28.5134 304.876 26.7534C308.029 21.5467 311.036 16.78 313.896 12.4534C313.969 12.3067 314.226 11.9034 314.666 11.2434C315.106 10.5834 315.656 10.07 316.316 9.70338H316.866C317.086 9.92338 317.196 10.07 317.196 10.1434C316.829 11.0967 316.573 11.6834 316.426 11.9034L307.846 25.3234C307.553 25.7634 307.186 26.4967 306.746 27.5234C306.673 27.7434 306.709 27.9634 306.856 28.1834C307.076 28.4034 307.333 28.5134 307.626 28.5134H307.736Z" fill="url(#paint7_linear_463_921)"/>
<path d="M335.984 61.5134L334.664 64.2634C334.224 65.6567 334.004 66.5367 334.004 66.9034C334.004 67.05 334.041 67.1234 334.114 67.1234C334.334 67.1234 334.994 66.5 336.094 65.2534C337.854 63.3467 338.991 62.1367 339.504 61.6234C341.044 60.0834 342.401 59.3134 343.574 59.3134C344.674 59.3134 345.224 60.01 345.224 61.4034C345.224 61.8434 345.188 62.21 345.114 62.5034C344.161 66.61 343.684 69.1401 343.684 70.0934C343.684 71.34 344.051 71.9634 344.784 71.9634C345.664 71.9634 347.278 70.9 349.624 68.7734L358.424 60.4134C358.938 59.9 359.451 59.4967 359.964 59.2034C360.478 58.91 360.918 58.7634 361.284 58.7634C361.504 58.7634 361.614 58.8734 361.614 59.0934C361.614 59.3867 361.394 59.7534 360.954 60.1934L349.844 70.7534C348.891 71.6334 347.864 72.3667 346.764 72.9534C345.664 73.5401 344.711 73.8334 343.904 73.8334C342.731 73.8334 342.034 73.2467 341.814 72.0734C341.741 71.7067 341.704 71.23 341.704 70.6434C341.704 69.9834 341.814 69.0667 342.034 67.8934L342.804 63.2734C342.804 62.6134 342.548 62.2834 342.034 62.2834C341.521 62.2834 341.044 62.5034 340.604 62.9434L336.204 67.4534C335.984 67.6734 335.581 68.0767 334.994 68.6634C334.408 69.2501 333.784 69.7634 333.124 70.2034C332.538 70.5701 331.988 70.5701 331.474 70.2034C331.108 69.9834 330.924 69.5801 330.924 68.9934C330.924 68.4067 331.108 67.6 331.474 66.5734C331.914 65.4734 332.538 64.1534 333.344 62.6134C334.151 61.0734 334.664 60.0834 334.884 59.6434C335.618 58.25 336.278 57.26 336.864 56.6734C337.524 56.0867 337.854 56.0867 337.854 56.6734C337.854 57.04 337.634 57.7367 337.194 58.7634L335.984 61.5134Z" fill="url(#paint8_linear_463_921)"/>
<path d="M359.788 64.7034V64.1534C359.642 63.2734 359.568 62.6134 359.568 62.1734C359.568 59.7534 360.302 57.7734 361.768 56.2334C363.308 54.6934 364.958 53.9234 366.718 53.9234C368.185 53.9234 369.395 54.51 370.348 55.6834C371.375 56.8567 371.888 58.6167 371.888 60.9634C371.888 61.55 371.815 62.5034 371.668 63.8234C371.668 64.2634 371.962 64.3367 372.548 64.0434C373.135 63.75 374.088 63.1634 375.408 62.2834L378.378 60.4134C378.525 60.2667 378.672 60.2667 378.818 60.4134C378.965 60.4867 379.038 60.67 379.038 60.9634C379.038 61.4034 378.855 61.8067 378.488 62.1734C376.655 63.86 374.602 65.2534 372.328 66.3534C370.055 67.4534 368.295 68.7001 367.048 70.0934C366.168 70.9734 365.178 71.67 364.078 72.1834C363.052 72.7701 362.135 73.0634 361.328 73.0634C359.642 73.0634 358.798 72.0367 358.798 69.9834L358.908 68.9934C358.982 68.5534 359.092 68.0401 359.238 67.4534C359.458 66.8667 359.605 66.4267 359.678 66.1334C359.752 65.84 359.788 65.3634 359.788 64.7034ZM367.818 55.5734C367.232 55.5734 366.608 55.7934 365.948 56.2334C364.702 56.8934 363.712 57.7734 362.978 58.8734C362.245 59.9734 361.878 61.1834 361.878 62.5034C361.878 62.87 361.952 63.42 362.098 64.1534C362.172 64.7401 362.502 65.2534 363.088 65.6934C363.748 66.1334 364.445 66.3534 365.178 66.3534C366.865 66.3534 368.185 65.6934 369.138 64.3734C370.092 63.0534 370.568 61.55 370.568 59.8634C370.568 58.69 370.312 57.7001 369.798 56.8934C369.358 56.0134 368.698 55.5734 367.818 55.5734ZM361.548 68.0034C361.255 68.15 361.108 68.3334 361.108 68.5534C361.108 68.6267 361.072 68.81 360.998 69.1034C360.925 69.3234 360.888 69.6167 360.888 69.9834C360.962 70.2767 361.108 70.57 361.328 70.8634C361.548 71.0834 361.805 71.1934 362.098 71.1934C362.245 71.1934 362.465 71.12 362.758 70.9734C363.418 70.68 364.152 70.2034 364.958 69.5434C365.252 69.25 365.215 68.9567 364.848 68.6634C363.528 68.15 362.685 67.8567 362.318 67.7834C362.098 67.71 361.842 67.7834 361.548 68.0034Z" fill="url(#paint9_linear_463_921)"/>
<path d="M374.978 70.0934C376.151 65.0334 377.801 60.8534 379.928 57.5534C380.148 57.3334 380.368 57.3334 380.588 57.5534C380.881 57.7734 381.028 58.03 381.028 58.3234V58.5434L379.598 61.8434C379.084 63.0167 378.644 64.08 378.278 65.0334C377.984 65.9134 378.021 66.3534 378.388 66.3534C378.828 66.3534 379.854 65.6567 381.468 64.2634C381.834 63.97 382.311 63.53 382.898 62.9434C383.558 62.3567 384.181 61.9167 384.768 61.6234C385.648 61.1834 386.271 61.33 386.638 62.0634C387.004 62.7967 387.261 63.9334 387.408 65.4734C387.481 66.1334 387.554 66.9767 387.628 68.0034C387.774 69.03 387.958 69.8 388.178 70.3134C388.398 70.7534 388.911 70.7901 389.718 70.4234C391.404 69.3234 393.128 67.8201 394.888 65.9134C397.308 63.4201 399.838 60.34 402.478 56.6734C402.624 56.38 403.284 55.5734 404.458 54.2534C404.531 54.18 404.714 54.1434 405.008 54.1434C405.521 54.6567 405.044 56.5634 403.578 59.8634C403.138 60.8167 402.844 61.6234 402.698 62.2834C402.624 63.0167 403.028 63.3834 403.908 63.3834C404.788 63.3834 405.888 63.09 407.208 62.5034L410.838 60.5234L413.478 59.0934C414.798 58.2867 415.824 57.8834 416.558 57.8834C417.218 57.8834 417.218 58.2134 416.558 58.8734C412.524 61.8801 408.711 63.9334 405.118 65.0334C404.238 65.3267 403.541 65.4734 403.028 65.4734C402.001 65.4734 401.121 65.1067 400.388 64.3734C400.168 64.1534 399.911 64.08 399.618 64.1534C399.324 64.1534 399.104 64.2267 398.958 64.3734C397.858 65.4 396.868 66.3901 395.988 67.3434C393.641 69.69 391.734 71.3034 390.268 72.1834C389.241 72.6967 388.434 72.9534 387.848 72.9534C386.528 72.9534 385.758 71.89 385.538 69.7634L385.208 64.9234C385.208 64.2634 384.841 64.1534 384.108 64.5934C383.448 64.9601 382.604 65.6567 381.578 66.6834L377.728 70.4234C377.214 70.9367 376.664 71.1934 376.078 71.1934C375.344 71.1934 374.978 70.8267 374.978 70.0934Z" fill="url(#paint10_linear_463_921)"/>
<defs>
<linearGradient id="paint0_linear_463_921" x1="8.45939e-07" y1="100.877" x2="421.633" y2="51.3724" gradientUnits="userSpaceOnUse">
<stop stop-color="#FFDE9A"/>
<stop offset="1" stop-color="#CEA764"/>
</linearGradient>
<linearGradient id="paint1_linear_463_921" x1="8.45939e-07" y1="100.877" x2="421.633" y2="51.3724" gradientUnits="userSpaceOnUse">
<stop stop-color="#FFDE9A"/>
<stop offset="1" stop-color="#CEA764"/>
</linearGradient>
<linearGradient id="paint2_linear_463_921" x1="8.45939e-07" y1="100.877" x2="421.633" y2="51.3724" gradientUnits="userSpaceOnUse">
<stop stop-color="#FFDE9A"/>
<stop offset="1" stop-color="#CEA764"/>
</linearGradient>
<linearGradient id="paint3_linear_463_921" x1="8.45939e-07" y1="100.877" x2="421.633" y2="51.3724" gradientUnits="userSpaceOnUse">
<stop stop-color="#FFDE9A"/>
<stop offset="1" stop-color="#CEA764"/>
</linearGradient>
<linearGradient id="paint4_linear_463_921" x1="8.45939e-07" y1="100.877" x2="421.633" y2="51.3724" gradientUnits="userSpaceOnUse">
<stop stop-color="#FFDE9A"/>
<stop offset="1" stop-color="#CEA764"/>
</linearGradient>
<linearGradient id="paint5_linear_463_921" x1="8.45939e-07" y1="100.877" x2="421.633" y2="51.3724" gradientUnits="userSpaceOnUse">
<stop stop-color="#FFDE9A"/>
<stop offset="1" stop-color="#CEA764"/>
</linearGradient>
<linearGradient id="paint6_linear_463_921" x1="8.45939e-07" y1="100.877" x2="421.633" y2="51.3724" gradientUnits="userSpaceOnUse">
<stop stop-color="#FFDE9A"/>
<stop offset="1" stop-color="#CEA764"/>
</linearGradient>
<linearGradient id="paint7_linear_463_921" x1="8.45939e-07" y1="100.877" x2="421.633" y2="51.3724" gradientUnits="userSpaceOnUse">
<stop stop-color="#FFDE9A"/>
<stop offset="1" stop-color="#CEA764"/>
</linearGradient>
<linearGradient id="paint8_linear_463_921" x1="8.45939e-07" y1="100.877" x2="421.633" y2="51.3724" gradientUnits="userSpaceOnUse">
<stop stop-color="#FFDE9A"/>
<stop offset="1" stop-color="#CEA764"/>
</linearGradient>
<linearGradient id="paint9_linear_463_921" x1="8.45939e-07" y1="100.877" x2="421.633" y2="51.3724" gradientUnits="userSpaceOnUse">
<stop stop-color="#FFDE9A"/>
<stop offset="1" stop-color="#CEA764"/>
</linearGradient>
<linearGradient id="paint10_linear_463_921" x1="8.45939e-07" y1="100.877" x2="421.633" y2="51.3724" gradientUnits="userSpaceOnUse">
<stop stop-color="#FFDE9A"/>
<stop offset="1" stop-color="#CEA764"/>
</linearGradient>
</defs>
</svg>
