<svg width="333" height="101" viewBox="0 0 333 101" fill="none" xmlns="http://www.w3.org/2000/svg">
<path d="M46.0503 36.94H46.2703L46.6003 22.09C46.6736 19.3767 46.5636 16.48 46.2703 13.4C45.977 10.32 45.7936 8.45 45.7203 7.79C45.5736 5.73666 45.0236 4.19666 44.0703 3.16999C43.7036 2.80333 43.227 2.61999 42.6403 2.61999C42.347 2.61999 42.1636 2.65666 42.0903 2.73C41.0636 3.39 40.477 3.83 40.3303 4.05C40.037 4.41666 39.4136 5.07666 38.4603 6.03C37.5803 6.98333 36.847 7.9 36.2603 8.77999C33.8403 12.1533 31.8236 15.3067 30.2103 18.24C21.337 34.08 14.297 49.7 9.09031 65.1C5.93698 74.1933 3.70031 82.37 2.38031 89.63C1.94031 91.9033 1.79365 94.36 1.94031 97C1.94031 97.7333 2.27031 98.1 2.93031 98.1C3.29698 98.1 3.59031 98.0633 3.81031 97.99C4.54365 97.8433 5.05698 97.77 5.35031 97.77C5.42365 97.77 5.46031 97.8067 5.46031 97.88C5.53365 98.0267 5.57031 98.1367 5.57031 98.21C5.13031 99.2367 4.36031 99.8967 3.26031 100.19C2.67365 100.337 2.08698 100.3 1.50031 100.08C0.913646 99.86 0.583646 99.53 0.510313 99.09C0.363646 98.65 0.216979 97.99 0.0703126 97.11C0.0703126 93.5167 0.290313 90.5467 0.730313 88.2C2.41698 79.84 5.09365 70.6 8.76031 60.48C13.8936 46.2533 20.2736 32.32 27.9003 18.68C29.0736 16.48 31.3103 12.8867 34.6103 7.9C35.637 6.43333 37.1403 4.71 39.1203 2.73C39.707 2.14333 40.4403 1.66666 41.3203 1.3C41.7603 1.08 42.2736 0.969996 42.8603 0.969996C43.447 0.969996 43.997 1.08 44.5103 1.3C45.097 1.52 45.537 1.85 45.8303 2.29C46.4903 3.39 46.857 4.12333 46.9303 4.49C47.0036 4.85666 47.2236 5.77333 47.5903 7.23999C47.957 8.70666 48.1403 10.1 48.1403 11.42L48.2503 15.82V47.94L48.3603 57.4C48.3603 58.7933 48.727 60.8833 49.4603 63.67C49.4603 63.7433 49.497 63.8167 49.5703 63.89C49.6436 63.9633 49.717 64 49.7903 64C49.8636 64 49.937 64 50.0103 64C50.157 63.9267 50.2303 63.8533 50.2303 63.78C50.817 62.8267 51.147 62.24 51.2203 62.02L56.2803 49.59C60.0937 40.2033 62.9903 33.1633 64.9703 28.47L71.2403 14.72L73.8803 9.21999C73.9537 9.14666 74.0637 8.92666 74.2103 8.56C74.4303 8.12 74.7603 7.82666 75.2003 7.67999H75.7503L76.0803 8.01C75.8603 8.59666 75.567 9.36667 75.2003 10.32C74.907 11.2733 74.577 12.08 74.2103 12.74C69.3703 23.0067 65.4837 31.7333 62.5503 38.92C60.3503 44.2 57.1236 52.12 52.8703 62.68C52.137 64.5867 51.5503 66.0167 51.1103 66.97C50.9636 67.3367 50.597 67.8867 50.0103 68.62C49.7903 68.84 49.4603 68.95 49.0203 68.95C48.507 68.8033 48.2136 68.6567 48.1403 68.51C47.5536 67.41 47.187 65.9433 47.0403 64.11C46.8936 61.3233 46.8203 59.1967 46.8203 57.73C46.6003 53.11 46.3436 46.18 46.0503 36.94ZM72.1873 73.79C71.3807 74.3033 69.7307 75.11 67.2373 76.21C66.504 76.5767 65.6607 76.76 64.7073 76.76C63.6073 76.76 62.7273 76.43 62.0673 75.77C61.4807 75.11 61.1873 74.1933 61.1873 73.02C61.1873 71.92 61.3707 70.93 61.7373 70.05C62.8373 67.63 64.3773 65.2833 66.3573 63.01C68.4107 60.6633 70.1707 59.49 71.6373 59.49C72.004 59.49 72.4073 59.6367 72.8473 59.93C73.214 60.2967 73.3973 60.7367 73.3973 61.25C73.3973 61.8367 73.2507 62.3133 72.9573 62.68C72.224 63.8533 71.1973 64.99 69.8773 66.09C68.5573 67.1167 67.3107 67.8867 66.1373 68.4C65.1107 68.84 64.304 69.5 63.7173 70.38C63.204 71.26 62.9473 72.14 62.9473 73.02C62.9473 73.7533 63.1673 74.34 63.6073 74.78C64.1207 75.1467 64.7807 75.22 65.5873 75C67.5673 74.4867 69.7307 73.4967 72.0773 72.03L82.0873 65.54C82.9673 65.1 83.6273 64.88 84.0673 64.88C84.434 64.88 84.6173 64.99 84.6173 65.21C84.6173 65.5033 84.2873 65.9433 83.6273 66.53L79.2273 69.39C78.3473 69.9033 77.3207 70.5633 76.1473 71.37C74.974 72.1033 73.654 72.91 72.1873 73.79ZM68.9973 64.77C69.6573 64.1833 70.354 63.34 71.0873 62.24C71.0873 62.1667 71.014 62.0567 70.8673 61.91C70.7207 61.69 70.5373 61.69 70.3173 61.91C68.9973 62.8633 68.0807 63.7067 67.5673 64.44C67.1273 65.1733 67.1273 65.54 67.5673 65.54C67.934 65.54 68.4107 65.2833 68.9973 64.77ZM82.0891 73.57C83.2624 68.51 84.9124 64.33 87.0391 61.03C87.2591 60.81 87.4791 60.81 87.6991 61.03C87.9924 61.25 88.1391 61.5067 88.1391 61.8V62.02L86.7091 65.32C86.1957 66.4933 85.7557 67.5567 85.3891 68.51C85.0957 69.39 85.1324 69.83 85.4991 69.83C85.9391 69.83 86.9657 69.1333 88.5791 67.74C88.9457 67.4467 89.4224 67.0067 90.0091 66.42C90.6691 65.8333 91.2924 65.3933 91.8791 65.1C92.7591 64.66 93.3824 64.8067 93.7491 65.54C94.1157 66.2733 94.3724 67.41 94.5191 68.95C94.5924 69.61 94.6657 70.4533 94.7391 71.48C94.8857 72.5067 95.0691 73.2767 95.2891 73.79C95.5091 74.23 96.0224 74.2667 96.8291 73.9C98.5157 72.8 100.239 71.2967 101.999 69.39C104.419 66.8967 106.949 63.8167 109.589 60.15C109.736 59.8567 110.396 59.05 111.569 57.73C111.642 57.6567 111.826 57.62 112.119 57.62C112.632 58.1333 112.156 60.04 110.689 63.34C110.249 64.2933 109.956 65.1 109.809 65.76C109.736 66.4933 110.139 66.86 111.019 66.86C111.899 66.86 112.999 66.5667 114.319 65.98L117.949 64L120.589 62.57C121.909 61.7633 122.936 61.36 123.669 61.36C124.329 61.36 124.329 61.69 123.669 62.35C119.636 65.3567 115.822 67.41 112.229 68.51C111.349 68.8033 110.652 68.95 110.139 68.95C109.112 68.95 108.232 68.5833 107.499 67.85C107.279 67.63 107.022 67.5567 106.729 67.63C106.436 67.63 106.216 67.7033 106.069 67.85C104.969 68.8767 103.979 69.8667 103.099 70.82C100.752 73.1667 98.8457 74.78 97.3791 75.66C96.3524 76.1733 95.5457 76.43 94.9591 76.43C93.6391 76.43 92.8691 75.3667 92.6491 73.24L92.3191 68.4C92.3191 67.74 91.9524 67.63 91.2191 68.07C90.5591 68.4367 89.7157 69.1333 88.6891 70.16L84.8391 73.9C84.3257 74.4133 83.7757 74.67 83.1891 74.67C82.4557 74.67 82.0891 74.3033 82.0891 73.57ZM161.073 68.73L153.373 75.33C151.246 76.9433 149.523 77.75 148.203 77.75C147.323 77.75 146.663 77.42 146.223 76.76C145.783 76.1 145.563 75.22 145.563 74.12C145.563 71.7 146.443 68.8033 148.203 65.43C149.963 62.0567 152.346 59.0867 155.353 56.52C156.673 55.42 158.029 54.87 159.423 54.87C160.816 54.87 161.513 55.4567 161.513 56.63C161.513 57.51 161.183 58.2433 160.523 58.83L159.753 59.16C159.533 59.16 159.313 58.94 159.093 58.5C159.019 58.3533 158.982 58.2067 158.982 58.06C159.056 57.84 159.056 57.6567 158.982 57.51C158.909 56.9233 158.543 56.7767 157.883 57.07C157.223 57.29 156.563 57.6933 155.903 58.28C153.263 60.7733 151.136 63.45 149.523 66.31C147.983 69.0967 147.213 71.37 147.213 73.13C147.213 74.5967 147.763 75.33 148.863 75.33C150.329 75.33 152.456 74.0467 155.243 71.48C155.756 71.04 156.893 70.05 158.653 68.51C160.486 66.8967 162.283 65.3567 164.043 63.89C165.876 62.35 166.793 61.8 166.793 62.24C166.793 62.46 166.573 62.9 166.133 63.56C166.059 63.6333 165.766 64.0367 165.253 64.77L163.603 66.42L161.073 68.73ZM165.298 68.18V67.63C165.151 66.75 165.078 66.09 165.078 65.65C165.078 63.23 165.811 61.25 167.278 59.71C168.818 58.17 170.468 57.4 172.228 57.4C173.695 57.4 174.905 57.9867 175.858 59.16C176.885 60.3333 177.398 62.0933 177.398 64.44C177.398 65.0267 177.325 65.98 177.178 67.3C177.178 67.74 177.471 67.8133 178.058 67.52C178.645 67.2267 179.598 66.64 180.918 65.76L183.888 63.89C184.035 63.7433 184.181 63.7433 184.328 63.89C184.475 63.9633 184.548 64.1467 184.548 64.44C184.548 64.88 184.365 65.2833 183.998 65.65C182.165 67.3367 180.111 68.73 177.838 69.83C175.565 70.93 173.805 72.1767 172.558 73.57C171.678 74.45 170.688 75.1467 169.588 75.66C168.561 76.2467 167.645 76.54 166.838 76.54C165.151 76.54 164.308 75.5133 164.308 73.46L164.418 72.47C164.491 72.03 164.601 71.5167 164.748 70.93C164.968 70.3433 165.115 69.9033 165.188 69.61C165.261 69.3167 165.298 68.84 165.298 68.18ZM173.328 59.05C172.741 59.05 172.118 59.27 171.458 59.71C170.211 60.37 169.221 61.25 168.488 62.35C167.755 63.45 167.388 64.66 167.388 65.98C167.388 66.3467 167.461 66.8967 167.608 67.63C167.681 68.2167 168.011 68.73 168.598 69.17C169.258 69.61 169.955 69.83 170.688 69.83C172.375 69.83 173.695 69.17 174.648 67.85C175.601 66.53 176.078 65.0267 176.078 63.34C176.078 62.1667 175.821 61.1767 175.308 60.37C174.868 59.49 174.208 59.05 173.328 59.05ZM167.058 71.48C166.765 71.6267 166.618 71.81 166.618 72.03C166.618 72.1033 166.581 72.2867 166.508 72.58C166.435 72.8 166.398 73.0933 166.398 73.46C166.471 73.7533 166.618 74.0467 166.838 74.34C167.058 74.56 167.315 74.67 167.608 74.67C167.755 74.67 167.975 74.5967 168.268 74.45C168.928 74.1567 169.661 73.68 170.468 73.02C170.761 72.7267 170.725 72.4333 170.358 72.14C169.038 71.6267 168.195 71.3333 167.828 71.26C167.608 71.1867 167.351 71.26 167.058 71.48ZM184.202 79.4C183.175 79.4 182.442 78.8867 182.002 77.86C181.782 77.3467 181.672 76.76 181.672 76.1C181.672 75.1467 181.892 73.9 182.332 72.36C182.772 70.82 183.065 69.7567 183.212 69.17C184.752 63.3767 187.612 55.75 191.792 46.29C196.705 35.2167 202.792 24.07 210.052 12.85C210.272 12.4833 210.675 11.9333 211.262 11.2C211.555 10.9067 211.812 10.8333 212.032 10.98C212.252 11.1267 212.362 11.3833 212.362 11.75C212.362 12.2633 212.178 12.8133 211.812 13.4C207.705 19.78 203.928 26.2333 200.482 32.76C195.275 42.2933 190.655 52.7433 186.622 64.11C186.108 65.65 185.412 68.0333 184.532 71.26C184.092 72.8733 183.872 74.1567 183.872 75.11C183.872 76.43 184.275 77.09 185.082 77.09C187.135 77.09 190.765 74.23 195.972 68.51C198.245 66.0167 200.078 64.1833 201.472 63.01C202.938 61.7633 203.855 61.14 204.222 61.14C204.662 61.14 204.258 61.9833 203.012 63.67C201.765 65.2833 199.932 67.3 197.512 69.72C195.165 72.14 192.598 74.45 189.812 76.65C187.538 78.4833 185.668 79.4 184.202 79.4ZM201.711 79.4C200.685 79.4 199.951 78.8867 199.511 77.86C199.291 77.3467 199.181 76.76 199.181 76.1C199.181 75.1467 199.401 73.9 199.841 72.36C200.281 70.82 200.575 69.7567 200.721 69.17C202.261 63.3767 205.121 55.75 209.301 46.29C214.215 35.2167 220.301 24.07 227.561 12.85C227.781 12.4833 228.185 11.9333 228.771 11.2C229.065 10.9067 229.321 10.8333 229.541 10.98C229.761 11.1267 229.871 11.3833 229.871 11.75C229.871 12.2633 229.688 12.8133 229.321 13.4C225.215 19.78 221.438 26.2333 217.991 32.76C212.785 42.2933 208.165 52.7433 204.131 64.11C203.618 65.65 202.921 68.0333 202.041 71.26C201.601 72.8733 201.381 74.1567 201.381 75.11C201.381 76.43 201.785 77.09 202.591 77.09C204.645 77.09 208.275 74.23 213.481 68.51C215.755 66.0167 217.588 64.1833 218.981 63.01C220.448 61.7633 221.365 61.14 221.731 61.14C222.171 61.14 221.768 61.9833 220.521 63.67C219.275 65.2833 217.441 67.3 215.021 69.72C212.675 72.14 210.108 74.45 207.321 76.65C205.048 78.4833 203.178 79.4 201.711 79.4ZM224.941 73.79C224.135 74.3033 222.485 75.11 219.991 76.21C219.258 76.5767 218.415 76.76 217.461 76.76C216.361 76.76 215.481 76.43 214.821 75.77C214.235 75.11 213.941 74.1933 213.941 73.02C213.941 71.92 214.125 70.93 214.491 70.05C215.591 67.63 217.131 65.2833 219.111 63.01C221.165 60.6633 222.925 59.49 224.391 59.49C224.758 59.49 225.161 59.6367 225.601 59.93C225.968 60.2967 226.151 60.7367 226.151 61.25C226.151 61.8367 226.005 62.3133 225.711 62.68C224.978 63.8533 223.951 64.99 222.631 66.09C221.311 67.1167 220.065 67.8867 218.891 68.4C217.865 68.84 217.058 69.5 216.471 70.38C215.958 71.26 215.701 72.14 215.701 73.02C215.701 73.7533 215.921 74.34 216.361 74.78C216.875 75.1467 217.535 75.22 218.341 75C220.321 74.4867 222.485 73.4967 224.831 72.03L234.841 65.54C235.721 65.1 236.381 64.88 236.821 64.88C237.188 64.88 237.371 64.99 237.371 65.21C237.371 65.5033 237.041 65.9433 236.381 66.53L231.981 69.39C231.101 69.9033 230.075 70.5633 228.901 71.37C227.728 72.1033 226.408 72.91 224.941 73.79ZM221.751 64.77C222.411 64.1833 223.108 63.34 223.841 62.24C223.841 62.1667 223.768 62.0567 223.621 61.91C223.475 61.69 223.291 61.69 223.071 61.91C221.751 62.8633 220.835 63.7067 220.321 64.44C219.881 65.1733 219.881 65.54 220.321 65.54C220.688 65.54 221.165 65.2833 221.751 64.77ZM249.803 68.73L242.103 75.33C239.976 76.9433 238.253 77.75 236.933 77.75C236.053 77.75 235.393 77.42 234.953 76.76C234.513 76.1 234.293 75.22 234.293 74.12C234.293 71.7 235.173 68.8033 236.933 65.43C238.693 62.0567 241.076 59.0867 244.083 56.52C245.403 55.42 246.76 54.87 248.153 54.87C249.546 54.87 250.243 55.4567 250.243 56.63C250.243 57.51 249.913 58.2433 249.253 58.83L248.483 59.16C248.263 59.16 248.043 58.94 247.823 58.5C247.75 58.3533 247.713 58.2067 247.713 58.06C247.786 57.84 247.786 57.6567 247.713 57.51C247.64 56.9233 247.273 56.7767 246.613 57.07C245.953 57.29 245.293 57.6933 244.633 58.28C241.993 60.7733 239.866 63.45 238.253 66.31C236.713 69.0967 235.943 71.37 235.943 73.13C235.943 74.5967 236.493 75.33 237.593 75.33C239.06 75.33 241.186 74.0467 243.973 71.48C244.486 71.04 245.623 70.05 247.383 68.51C249.216 66.8967 251.013 65.3567 252.773 63.89C254.606 62.35 255.523 61.8 255.523 62.24C255.523 62.46 255.303 62.9 254.863 63.56C254.79 63.6333 254.496 64.0367 253.983 64.77L252.333 66.42L249.803 68.73ZM274.379 31.99L279.219 31.55C280.832 31.55 282.189 31.5867 283.289 31.66C283.435 31.66 283.545 31.7333 283.619 31.88C283.692 31.9533 283.729 31.99 283.729 31.99C283.655 32.0633 283.545 32.21 283.399 32.43C283.325 32.5767 283.215 32.65 283.069 32.65L273.059 33.97C272.179 34.0433 271.409 34.4833 270.749 35.29C270.529 35.5833 270.272 36.0233 269.979 36.61C266.899 42.0367 264.259 46.9867 262.059 51.46C259.859 55.86 257.915 60.2967 256.229 64.77C254.249 70.1233 253.259 73.8633 253.259 75.99C253.259 77.6033 253.772 78.41 254.799 78.41C256.412 78.41 259.309 76.4667 263.489 72.58C264.882 71.3333 266.092 70.16 267.119 69.06C268.219 67.96 269.209 67.0067 270.089 66.2L273.389 63.01C274.415 62.2033 275.185 61.8 275.699 61.8C275.919 61.8 276.029 61.91 276.029 62.13C276.029 62.35 275.919 62.68 275.699 63.12C269.905 68.7667 265.139 73.0933 261.399 76.1C257.732 79.1067 255.019 80.61 253.259 80.61C251.865 80.61 251.169 79.5467 251.169 77.42C251.169 75.0733 251.975 71.4433 253.589 66.53C254.982 62.6433 256.522 58.8667 258.209 55.2C259.969 51.5333 262.389 46.7667 265.469 40.9C266.055 39.8 266.862 38.15 267.889 35.95C267.962 35.8033 267.889 35.62 267.669 35.4C267.449 35.1067 267.229 34.96 267.009 34.96H265.249C261.582 35.6933 258.832 36.2067 256.999 36.5C254.212 36.7933 252.159 36.9767 250.839 37.05C250.692 37.05 250.509 36.9767 250.289 36.83C250.142 36.61 250.069 36.39 250.069 36.17C250.069 35.8767 250.252 35.73 250.619 35.73L265.689 33.42L266.789 33.31C268.989 33.0167 270.565 31.99 271.519 30.23C274.672 25.0233 277.679 20.2567 280.539 15.93C280.612 15.7833 280.869 15.38 281.309 14.72C281.749 14.06 282.299 13.5467 282.959 13.18H283.509C283.729 13.4 283.839 13.5467 283.839 13.62C283.472 14.5733 283.215 15.16 283.069 15.38L274.489 28.8C274.195 29.24 273.829 29.9733 273.389 31C273.315 31.22 273.352 31.44 273.499 31.66C273.719 31.88 273.975 31.99 274.269 31.99H274.379ZM285.027 46.18L285.357 46.62C285.357 46.6933 285.357 46.7667 285.357 46.84C285.43 46.9133 285.43 46.9867 285.357 47.06C284.257 49.04 283.047 51.02 281.727 53C281.507 53.3667 281.177 53.55 280.737 53.55C280.59 53.55 280.517 53.5133 280.517 53.44C280.517 53.3667 280.444 53.22 280.297 53C280.224 52.78 280.224 52.6333 280.297 52.56C280.81 51.5333 281.654 50.0667 282.827 48.16C282.974 47.94 283.56 47.3167 284.587 46.29C284.66 46.2167 284.807 46.18 285.027 46.18ZM271.827 67.41C272.56 65.21 273.624 63.01 275.017 60.81C275.09 60.4433 275.384 60.26 275.897 60.26C276.19 60.26 276.447 60.3333 276.667 60.48C276.887 60.5533 276.997 60.6633 276.997 60.81L276.887 61.03C275.127 64.0367 273.88 66.75 273.147 69.17C272.634 70.7833 272.377 72.14 272.377 73.24C272.377 74.4867 272.817 75.11 273.697 75.11C274.43 75.11 275.494 74.67 276.887 73.79C278.28 72.8367 280.334 71.2967 283.047 69.17L286.897 66.2C287.19 66.0533 287.41 66.0533 287.557 66.2C287.777 66.3467 287.887 66.5667 287.887 66.86C287.814 67.0067 287.74 67.1533 287.667 67.3C287.594 67.4467 287.484 67.5933 287.337 67.74L277.877 75.55C276.264 76.87 274.797 77.53 273.477 77.53C271.644 77.53 270.727 76.1 270.727 73.24C270.727 71.5533 271.094 69.61 271.827 67.41ZM286.363 68.18V67.63C286.216 66.75 286.143 66.09 286.143 65.65C286.143 63.23 286.876 61.25 288.343 59.71C289.883 58.17 291.533 57.4 293.293 57.4C294.759 57.4 295.969 57.9867 296.923 59.16C297.949 60.3333 298.463 62.0933 298.463 64.44C298.463 65.0267 298.389 65.98 298.243 67.3C298.243 67.74 298.536 67.8133 299.123 67.52C299.709 67.2267 300.663 66.64 301.983 65.76L304.953 63.89C305.099 63.7433 305.246 63.7433 305.393 63.89C305.539 63.9633 305.613 64.1467 305.613 64.44C305.613 64.88 305.429 65.2833 305.063 65.65C303.229 67.3367 301.176 68.73 298.903 69.83C296.629 70.93 294.869 72.1767 293.623 73.57C292.743 74.45 291.753 75.1467 290.653 75.66C289.626 76.2467 288.709 76.54 287.903 76.54C286.216 76.54 285.373 75.5133 285.373 73.46L285.483 72.47C285.556 72.03 285.666 71.5167 285.813 70.93C286.033 70.3433 286.179 69.9033 286.253 69.61C286.326 69.3167 286.363 68.84 286.363 68.18ZM294.393 59.05C293.806 59.05 293.183 59.27 292.523 59.71C291.276 60.37 290.286 61.25 289.553 62.35C288.819 63.45 288.453 64.66 288.453 65.98C288.453 66.3467 288.526 66.8967 288.673 67.63C288.746 68.2167 289.076 68.73 289.663 69.17C290.323 69.61 291.019 69.83 291.753 69.83C293.439 69.83 294.759 69.17 295.713 67.85C296.666 66.53 297.143 65.0267 297.143 63.34C297.143 62.1667 296.886 61.1767 296.373 60.37C295.933 59.49 295.273 59.05 294.393 59.05ZM288.123 71.48C287.829 71.6267 287.683 71.81 287.683 72.03C287.683 72.1033 287.646 72.2867 287.572 72.58C287.499 72.8 287.463 73.0933 287.463 73.46C287.536 73.7533 287.683 74.0467 287.903 74.34C288.123 74.56 288.379 74.67 288.673 74.67C288.819 74.67 289.039 74.5967 289.333 74.45C289.993 74.1567 290.726 73.68 291.533 73.02C291.826 72.7267 291.789 72.4333 291.423 72.14C290.103 71.6267 289.259 71.3333 288.893 71.26C288.673 71.1867 288.416 71.26 288.123 71.48ZM307.246 64.99L305.926 67.74C305.486 69.1333 305.266 70.0133 305.266 70.38C305.266 70.5267 305.303 70.6 305.376 70.6C305.596 70.6 306.256 69.9767 307.356 68.73C309.116 66.8233 310.253 65.6133 310.766 65.1C312.306 63.56 313.663 62.79 314.836 62.79C315.936 62.79 316.486 63.4867 316.486 64.88C316.486 65.32 316.45 65.6867 316.376 65.98C315.423 70.0867 314.946 72.6167 314.946 73.57C314.946 74.8167 315.313 75.44 316.046 75.44C316.926 75.44 318.54 74.3767 320.886 72.25L329.686 63.89C330.2 63.3767 330.713 62.9733 331.226 62.68C331.74 62.3867 332.18 62.24 332.546 62.24C332.766 62.24 332.876 62.35 332.876 62.57C332.876 62.8633 332.656 63.23 332.216 63.67L321.106 74.23C320.153 75.11 319.126 75.8433 318.026 76.43C316.926 77.0167 315.973 77.31 315.166 77.31C313.993 77.31 313.296 76.7233 313.076 75.55C313.003 75.1833 312.966 74.7067 312.966 74.12C312.966 73.46 313.076 72.5433 313.296 71.37L314.066 66.75C314.066 66.09 313.81 65.76 313.296 65.76C312.783 65.76 312.306 65.98 311.866 66.42L307.466 70.93C307.246 71.15 306.843 71.5533 306.256 72.14C305.67 72.7267 305.046 73.24 304.386 73.68C303.8 74.0467 303.25 74.0467 302.736 73.68C302.37 73.46 302.186 73.0567 302.186 72.47C302.186 71.8833 302.37 71.0767 302.736 70.05C303.176 68.95 303.8 67.63 304.606 66.09C305.413 64.55 305.926 63.56 306.146 63.12C306.88 61.7267 307.54 60.7367 308.126 60.15C308.786 59.5633 309.116 59.5633 309.116 60.15C309.116 60.5167 308.896 61.2133 308.456 62.24L307.246 64.99Z" fill="url(#paint0_linear_463_561)"/>
<defs>
<linearGradient id="paint0_linear_463_561" x1="-6" y1="83.0182" x2="331.129" y2="56.2887" gradientUnits="userSpaceOnUse">
<stop stop-color="#FFDE9A"/>
<stop offset="1" stop-color="#CEA764"/>
</linearGradient>
</defs>
</svg>
