<svg width="459" height="101" viewBox="0 0 459 101" fill="none" xmlns="http://www.w3.org/2000/svg">
<path d="M0.969482 55.33C1.04282 54.89 1.07948 54.45 1.07948 54.01C1.07948 51.5167 1.73948 48.1433 3.05948 43.89C6.43282 33.33 11.3095 22.8067 17.6895 12.32C18.7162 10.6333 20.4028 8.10333 22.7495 4.73L25.1695 1.21C25.6095 0.476665 26.1595 0.0733324 26.8195 0L27.2595 0.219997C27.3328 0.219997 27.4062 0.256666 27.4795 0.330002C27.5528 0.403335 27.5528 0.476667 27.4795 0.549999C27.3328 1.13667 27.1128 1.57667 26.8195 1.87C17.5061 14.7767 10.4295 28.2333 5.58948 42.24C5.14948 43.4133 4.52615 45.5033 3.71948 48.51C3.64615 49.0233 3.46282 49.7933 3.16948 50.82C2.87615 51.92 2.72948 53.13 2.72948 54.45C2.72948 55.55 2.83948 56.65 3.05948 57.75C3.13282 58.0433 3.38948 58.3367 3.82948 58.63C4.26948 58.9233 4.67282 59.07 5.03948 59.07H5.14948C5.36948 58.9967 5.69948 58.9233 6.13948 58.85C6.57948 58.7033 6.94615 58.5567 7.23948 58.41C10.2462 56.5767 12.2262 55.2933 13.1795 54.56C16.8461 51.7 20.5495 48.6567 24.2895 45.43L40.3495 32.12C41.4495 31.24 44.4195 29.0033 49.2595 25.41L51.8995 23.43C54.0262 21.89 56.2628 20.68 58.6095 19.8C59.0495 19.6533 59.4161 19.58 59.7095 19.58C60.5161 19.58 61.1762 19.8367 61.6895 20.35C62.2762 20.8633 62.5695 21.4867 62.5695 22.22C62.5695 22.66 62.4962 23.32 62.3495 24.2C61.4695 27.1333 60.7362 29.3333 60.1495 30.8C57.2895 38.3533 52.7062 48.4733 46.3995 61.16L37.4895 78.21C37.4161 78.2833 37.4161 78.3567 37.4895 78.43C37.5628 78.5767 37.5995 78.65 37.5995 78.65C38.1128 78.65 38.4062 78.6133 38.4795 78.54L40.6795 76.23C46.3262 69.85 52.2295 63.6167 58.3895 57.53C62.3495 53.57 65.6861 50.6733 68.3995 48.84C68.5462 48.7667 68.6928 48.7667 68.8395 48.84C69.0595 48.9133 69.2062 48.9867 69.2795 49.06C69.4262 49.1333 69.4262 49.4267 69.2795 49.94C69.2795 50.0133 69.2062 50.1233 69.0595 50.27C64.7328 53.8633 60.6262 57.64 56.7395 61.6C52.8528 65.56 48.1228 70.5833 42.5495 76.67C41.7428 77.4767 39.7995 79.7133 36.7195 83.38C36.6461 83.4533 35.9495 84.26 34.6295 85.8C32.2828 88.5867 30.4495 90.7867 29.1295 92.4C27.8828 94.0867 26.7095 95.8833 25.6095 97.79C25.3895 98.1567 24.7661 98.9633 23.7395 100.21C23.5928 100.357 23.4095 100.43 23.1895 100.43C23.0428 100.503 22.8962 100.503 22.7495 100.43C22.6028 100.357 22.4562 100.21 22.3095 99.99C22.2362 99.8433 22.2362 99.7333 22.3095 99.66C22.5295 98.78 22.8595 98.01 23.2995 97.35C28.2128 90.3833 32.6861 83.1233 36.7195 75.57C40.8261 68.09 45.4095 59.0333 50.4695 48.4C52.0828 45.0267 54.7228 39.05 58.3895 30.47C58.9028 29.0767 59.5262 26.9867 60.2595 24.2C60.4062 23.8333 60.3328 23.21 60.0395 22.33C59.9662 22.11 59.6728 21.9267 59.1595 21.78C58.4262 21.78 57.9128 21.89 57.6195 22.11C55.6395 23.0633 53.7695 24.1633 52.0095 25.41L47.7195 28.71C40.9728 33.9167 37.0495 36.9967 35.9495 37.95L28.0295 44.55C25.4628 46.75 22.7862 48.9867 19.9995 51.26C17.1395 53.68 14.4628 55.77 11.9695 57.53C10.0628 58.9233 8.15615 59.9867 6.24948 60.72C5.51615 60.8667 5.03948 60.94 4.81948 60.94C3.86615 60.94 3.05948 60.6833 2.39948 60.17C1.73948 59.6567 1.33615 58.96 1.18948 58.08C1.11615 57.7133 1.07948 57.2 1.07948 56.54C1.00615 56.1 0.969482 55.6967 0.969482 55.33Z" fill="url(#paint0_linear_463_555)"/>
<path d="M65.2765 68.31V67.76C65.1298 66.88 65.0565 66.22 65.0565 65.78C65.0565 63.36 65.7898 61.38 67.2565 59.84C68.7965 58.3 70.4465 57.53 72.2065 57.53C73.6732 57.53 74.8832 58.1167 75.8365 59.29C76.8632 60.4633 77.3765 62.2233 77.3765 64.57C77.3765 65.1567 77.3032 66.11 77.1565 67.43C77.1565 67.87 77.4498 67.9433 78.0365 67.65C78.6232 67.3567 79.5765 66.77 80.8965 65.89L83.8665 64.02C84.0132 63.8733 84.1599 63.8733 84.3065 64.02C84.4532 64.0933 84.5265 64.2767 84.5265 64.57C84.5265 65.01 84.3432 65.4133 83.9765 65.78C82.1432 67.4667 80.0898 68.86 77.8165 69.96C75.5432 71.06 73.7832 72.3067 72.5365 73.7C71.6565 74.58 70.6665 75.2767 69.5665 75.79C68.5398 76.3767 67.6232 76.67 66.8165 76.67C65.1298 76.67 64.2865 75.6433 64.2865 73.59L64.3965 72.6C64.4698 72.16 64.5798 71.6467 64.7265 71.06C64.9465 70.4733 65.0932 70.0333 65.1665 69.74C65.2398 69.4467 65.2765 68.97 65.2765 68.31ZM73.3065 59.18C72.7198 59.18 72.0965 59.4 71.4365 59.84C70.1898 60.5 69.1998 61.38 68.4665 62.48C67.7332 63.58 67.3665 64.79 67.3665 66.11C67.3665 66.4767 67.4398 67.0267 67.5865 67.76C67.6599 68.3467 67.9898 68.86 68.5765 69.3C69.2365 69.74 69.9332 69.96 70.6665 69.96C72.3532 69.96 73.6732 69.3 74.6265 67.98C75.5798 66.66 76.0565 65.1567 76.0565 63.47C76.0565 62.2967 75.7999 61.3067 75.2865 60.5C74.8465 59.62 74.1865 59.18 73.3065 59.18ZM67.0365 71.61C66.7432 71.7567 66.5965 71.94 66.5965 72.16C66.5965 72.2333 66.5598 72.4167 66.4865 72.71C66.4132 72.93 66.3765 73.2233 66.3765 73.59C66.4498 73.8833 66.5965 74.1767 66.8165 74.47C67.0365 74.69 67.2932 74.8 67.5865 74.8C67.7332 74.8 67.9532 74.7267 68.2465 74.58C68.9065 74.2867 69.6399 73.81 70.4465 73.15C70.7399 72.8567 70.7032 72.5633 70.3365 72.27C69.0165 71.7567 68.1732 71.4633 67.8065 71.39C67.5865 71.3167 67.3298 71.39 67.0365 71.61Z" fill="url(#paint1_linear_463_555)"/>
<path d="M90.146 69.74C89.5593 70.3267 88.8993 70.95 88.166 71.61C85.5993 73.9567 83.6193 75.13 82.226 75.13C81.126 75.13 80.576 74.3967 80.576 72.93C80.576 71.61 80.9793 69.9233 81.786 67.87C82.666 65.7433 83.876 63.5067 85.416 61.16C85.7826 60.7933 86.076 60.61 86.296 60.61C86.4426 60.61 86.516 60.7567 86.516 61.05C86.516 61.3433 86.296 62.15 85.856 63.47L83.546 69.63C83.326 70.29 83.216 70.84 83.216 71.28C83.216 71.94 83.436 72.27 83.876 72.27C84.4626 72.27 85.3426 71.7933 86.516 70.84L92.786 64.46C94.106 63.14 95.1693 62.48 95.976 62.48C96.636 62.48 96.966 62.9933 96.966 64.02C96.966 64.5333 96.9293 64.9733 96.856 65.34C96.5626 66.2933 96.0493 67.7233 95.316 69.63C94.7293 71.17 94.436 72.5267 94.436 73.7C94.436 74.5067 94.6926 74.91 95.206 74.91C96.1593 74.91 97.6993 73.7 99.826 71.28L107.196 62.48C107.563 62.1133 108.076 61.93 108.736 61.93C109.249 61.93 109.506 62.04 109.506 62.26C109.506 62.3333 109.433 62.4433 109.286 62.59L99.166 74.58C97.4793 76.4133 95.976 77.33 94.656 77.33C93.2626 77.33 92.566 76.23 92.566 74.03C92.566 73.37 92.6026 72.82 92.676 72.38C93.116 70.62 93.4826 69.2633 93.776 68.31C94.0693 67.2833 94.2526 66.55 94.326 66.11C94.326 65.67 93.4826 66.33 91.796 68.09C91.2826 68.53 90.7326 69.08 90.146 69.74Z" fill="url(#paint2_linear_463_555)"/>
<path d="M157.114 63.36C158.507 61.9667 159.424 61.27 159.864 61.27C160.157 61.27 160.304 61.6 160.304 62.26C160.23 62.5533 159.057 63.8367 156.784 66.11C154.51 68.31 152.2 70.51 149.854 72.71C149.267 73.2967 148.35 74.0667 147.104 75.02C145.857 75.9 144.904 76.45 144.244 76.67C143.144 76.9633 142.41 76.7067 142.044 75.9C141.677 75.1667 141.494 73.9933 141.494 72.38C141.494 71.2067 141.567 69.4467 141.714 67.1C139.587 69.8133 137.607 71.83 135.774 73.15C134.014 74.47 132.547 75.13 131.374 75.13C130.64 75.13 130.054 74.8733 129.614 74.36C129.174 73.8467 128.954 73.1867 128.954 72.38C128.954 70.6933 129.687 68.75 131.154 66.55C132.694 64.35 134.967 62.3333 137.974 60.5C139.074 59.84 140.027 59.51 140.834 59.51C141.86 59.51 142.63 60.0233 143.144 61.05C143.73 62.0767 144.024 63.4333 144.024 65.12C144.024 66.3667 143.84 67.98 143.474 69.96C143.18 71.1333 143.034 72.1233 143.034 72.93C143.034 73.9567 143.327 74.47 143.914 74.47C144.72 74.47 145.784 73.8833 147.104 72.71C148.497 71.4633 150.55 69.5567 153.264 66.99L154.914 65.34L157.114 63.36ZM140.174 64.46C140.467 64.0933 140.614 63.6167 140.614 63.03C140.54 62.2233 140.137 61.82 139.404 61.82C139.037 61.82 138.634 61.9667 138.194 62.26C135.774 64.0933 133.94 65.8533 132.694 67.54C131.52 69.1533 130.934 70.4367 130.934 71.39C130.934 71.9767 131.227 72.27 131.814 72.27C132.547 72.27 133.647 71.6467 135.114 70.4C136.58 69.08 138.267 67.1 140.174 64.46Z" fill="url(#paint3_linear_463_555)"/>
<path d="M161.297 61.82C160.71 62.6267 160.124 63.6167 159.537 64.79C158.437 66.99 157.997 68.09 158.217 68.09C158.364 68.09 158.877 67.76 159.757 67.1C160.637 66.3667 161.554 65.6333 162.507 64.9C163.754 64.1667 164.854 63.8 165.807 63.8C166.54 63.8 167.164 64.0567 167.677 64.57C167.97 64.9367 168.3 65.4133 168.667 66C169.107 66.5867 169.51 66.88 169.877 66.88C170.097 66.88 170.244 66.8433 170.317 66.77C170.61 66.6967 171.344 66.2567 172.517 65.45C175.524 63.6167 177.284 62.7367 177.797 62.81C178.824 62.6633 178.897 63.03 178.017 63.91C177.137 64.7167 175.854 65.67 174.167 66.77C172.48 67.7967 171.197 68.4567 170.317 68.75C170.097 68.8233 169.804 68.86 169.437 68.86C168.557 68.86 167.897 68.53 167.457 67.87C166.357 66.55 165.33 65.89 164.377 65.89C163.57 65.89 162.69 66.2933 161.737 67.1C160.857 67.8333 159.574 69.1167 157.887 70.95L156.347 72.6C155.174 73.8467 154.184 74.7267 153.377 75.24C152.57 75.7533 152.167 75.68 152.167 75.02C152.167 74.7267 152.277 74.25 152.497 73.59C156.164 67.1367 158.877 62.26 160.637 58.96L161.627 57.75C161.774 57.6767 161.994 57.64 162.287 57.64C162.654 57.64 162.837 57.7867 162.837 58.08C162.617 58.96 162.36 59.6933 162.067 60.28C161.847 60.7933 161.59 61.3067 161.297 61.82Z" fill="url(#paint4_linear_463_555)"/>
<path d="M182.39 73.92C181.584 74.4333 179.934 75.24 177.44 76.34C176.707 76.7067 175.864 76.89 174.91 76.89C173.81 76.89 172.93 76.56 172.27 75.9C171.684 75.24 171.39 74.3233 171.39 73.15C171.39 72.05 171.574 71.06 171.94 70.18C173.04 67.76 174.58 65.4133 176.56 63.14C178.614 60.7933 180.374 59.62 181.84 59.62C182.207 59.62 182.61 59.7667 183.05 60.06C183.417 60.4267 183.6 60.8667 183.6 61.38C183.6 61.9667 183.454 62.4433 183.16 62.81C182.427 63.9833 181.4 65.12 180.08 66.22C178.76 67.2467 177.514 68.0167 176.34 68.53C175.314 68.97 174.507 69.63 173.92 70.51C173.407 71.39 173.15 72.27 173.15 73.15C173.15 73.8833 173.37 74.47 173.81 74.91C174.324 75.2767 174.984 75.35 175.79 75.13C177.77 74.6167 179.934 73.6267 182.28 72.16L192.29 65.67C193.17 65.23 193.83 65.01 194.27 65.01C194.637 65.01 194.82 65.12 194.82 65.34C194.82 65.6333 194.49 66.0733 193.83 66.66L189.43 69.52C188.55 70.0333 187.524 70.6933 186.35 71.5C185.177 72.2333 183.857 73.04 182.39 73.92ZM179.2 64.9C179.86 64.3133 180.557 63.47 181.29 62.37C181.29 62.2967 181.217 62.1867 181.07 62.04C180.924 61.82 180.74 61.82 180.52 62.04C179.2 62.9933 178.284 63.8367 177.77 64.57C177.33 65.3033 177.33 65.67 177.77 65.67C178.137 65.67 178.614 65.4133 179.2 64.9Z" fill="url(#paint5_linear_463_555)"/>
<path d="M242.892 32.12L247.732 31.68C249.345 31.68 250.702 31.7167 251.802 31.79C251.949 31.79 252.059 31.8633 252.132 32.01C252.205 32.0833 252.242 32.12 252.242 32.12C252.169 32.1933 252.059 32.34 251.912 32.56C251.839 32.7067 251.729 32.78 251.582 32.78L241.572 34.1C240.692 34.1733 239.922 34.6133 239.262 35.42C239.042 35.7133 238.785 36.1533 238.492 36.74C235.412 42.1667 232.772 47.1167 230.572 51.59C228.372 55.99 226.429 60.4267 224.742 64.9C222.762 70.2533 221.772 73.9933 221.772 76.12C221.772 77.7333 222.285 78.54 223.312 78.54C224.925 78.54 227.822 76.5967 232.002 72.71C233.395 71.4633 234.605 70.29 235.632 69.19C236.732 68.09 237.722 67.1367 238.602 66.33L241.902 63.14C242.929 62.3333 243.699 61.93 244.212 61.93C244.432 61.93 244.542 62.04 244.542 62.26C244.542 62.48 244.432 62.81 244.212 63.25C238.419 68.8967 233.652 73.2233 229.912 76.23C226.245 79.2367 223.532 80.74 221.772 80.74C220.379 80.74 219.682 79.6767 219.682 77.55C219.682 75.2033 220.489 71.5733 222.102 66.66C223.495 62.7733 225.035 58.9967 226.722 55.33C228.482 51.6633 230.902 46.8967 233.982 41.03C234.569 39.93 235.375 38.28 236.402 36.08C236.475 35.9333 236.402 35.75 236.182 35.53C235.962 35.2367 235.742 35.09 235.522 35.09H233.762C230.095 35.8233 227.345 36.3367 225.512 36.63C222.725 36.9233 220.672 37.1067 219.352 37.18C219.205 37.18 219.022 37.1067 218.802 36.96C218.655 36.74 218.582 36.52 218.582 36.3C218.582 36.0067 218.765 35.86 219.132 35.86L234.202 33.55L235.302 33.44C237.502 33.1467 239.079 32.12 240.032 30.36C243.185 25.1533 246.192 20.3867 249.052 16.06C249.125 15.9133 249.382 15.51 249.822 14.85C250.262 14.19 250.812 13.6767 251.472 13.31H252.022C252.242 13.53 252.352 13.6767 252.352 13.75C251.985 14.7033 251.729 15.29 251.582 15.51L243.002 28.93C242.709 29.37 242.342 30.1033 241.902 31.13C241.829 31.35 241.865 31.57 242.012 31.79C242.232 32.01 242.489 32.12 242.782 32.12H242.892Z" fill="url(#paint6_linear_463_555)"/>
<path d="M255.081 78.54C254.567 78.1733 254.237 77.6233 254.091 76.89C253.944 75.57 253.871 74.58 253.871 73.92C253.871 72.9667 253.944 71.6833 254.091 70.07L254.201 67.21C254.201 65.3033 253.797 64.35 252.991 64.35C252.037 64.35 250.277 65.6333 247.711 68.2C246.024 69.8867 244.814 71.17 244.081 72.05L242.321 73.92C241.587 74.6533 240.781 75.35 239.901 76.01C239.607 76.3033 239.277 76.34 238.911 76.12C238.544 75.9 238.361 75.6067 238.361 75.24V75.02C238.434 74.58 238.581 74.0667 238.801 73.48C239.021 72.8933 239.167 72.4533 239.241 72.16C243.054 62.3333 247.344 52.5067 252.111 42.68C255.631 35.42 259.407 28.6 263.441 22.22C264.541 20.46 266.007 18.37 267.841 15.95C268.207 15.5833 268.574 15.4 268.941 15.4C269.454 15.4 269.711 15.5833 269.711 15.95C269.711 16.17 269.601 16.39 269.381 16.61C265.421 22.0367 261.131 29.1867 256.511 38.06C253.357 44.1467 250.204 50.5633 247.051 57.31C243.897 64.0567 242.321 68.2367 242.321 69.85C242.321 70.4367 242.577 70.62 243.091 70.4C247.637 65.8533 250.644 63.14 252.111 62.26C252.624 61.9667 253.174 61.82 253.761 61.82C255.081 61.82 255.887 62.7367 256.181 64.57C256.181 67.5033 256.034 70.95 255.741 74.91C255.741 75.4967 255.887 76.0467 256.181 76.56C256.547 77.0733 256.951 77.33 257.391 77.33C257.684 77.33 257.941 77.22 258.161 77C259.627 75.5333 260.691 74.3967 261.351 73.59L263.551 70.95C265.311 68.75 266.777 67.1733 267.951 66.22C268.097 66.0733 268.281 66.11 268.501 66.33C268.794 66.55 268.941 66.8067 268.941 67.1C268.941 67.2467 268.904 67.3567 268.831 67.43L261.131 76.56C260.544 77.22 259.921 77.8433 259.261 78.43C258.674 78.9433 257.904 79.2 256.951 79.2C256.291 79.2 255.667 78.98 255.081 78.54Z" fill="url(#paint7_linear_463_555)"/>
<path d="M276.17 73.92C275.363 74.4333 273.713 75.24 271.22 76.34C270.486 76.7067 269.643 76.89 268.69 76.89C267.59 76.89 266.71 76.56 266.05 75.9C265.463 75.24 265.17 74.3233 265.17 73.15C265.17 72.05 265.353 71.06 265.72 70.18C266.82 67.76 268.36 65.4133 270.34 63.14C272.393 60.7933 274.153 59.62 275.62 59.62C275.986 59.62 276.39 59.7667 276.83 60.06C277.196 60.4267 277.38 60.8667 277.38 61.38C277.38 61.9667 277.233 62.4433 276.94 62.81C276.206 63.9833 275.18 65.12 273.86 66.22C272.54 67.2467 271.293 68.0167 270.12 68.53C269.093 68.97 268.286 69.63 267.7 70.51C267.186 71.39 266.93 72.27 266.93 73.15C266.93 73.8833 267.15 74.47 267.59 74.91C268.103 75.2767 268.763 75.35 269.57 75.13C271.55 74.6167 273.713 73.6267 276.06 72.16L286.07 65.67C286.95 65.23 287.61 65.01 288.05 65.01C288.416 65.01 288.6 65.12 288.6 65.34C288.6 65.6333 288.27 66.0733 287.61 66.66L283.21 69.52C282.33 70.0333 281.303 70.6933 280.13 71.5C278.956 72.2333 277.636 73.04 276.17 73.92ZM272.98 64.9C273.64 64.3133 274.336 63.47 275.07 62.37C275.07 62.2967 274.996 62.1867 274.85 62.04C274.703 61.82 274.52 61.82 274.3 62.04C272.98 62.9933 272.063 63.8367 271.55 64.57C271.11 65.3033 271.11 65.67 271.55 65.67C271.916 65.67 272.393 65.4133 272.98 64.9Z" fill="url(#paint8_linear_463_555)"/>
<path d="M313.571 73.7C314.745 68.64 316.395 64.46 318.521 61.16C318.741 60.94 318.961 60.94 319.181 61.16C319.475 61.38 319.621 61.6367 319.621 61.93V62.15L318.191 65.45C317.678 66.6233 317.238 67.6867 316.871 68.64C316.578 69.52 316.615 69.96 316.981 69.96C317.421 69.96 318.448 69.2633 320.061 67.87C320.428 67.5767 320.905 67.1367 321.491 66.55C322.151 65.9633 322.775 65.5233 323.361 65.23C324.241 64.79 324.865 64.9367 325.231 65.67C325.598 66.4033 325.855 67.54 326.001 69.08C326.075 69.74 326.148 70.5833 326.221 71.61C326.368 72.6367 326.551 73.4067 326.771 73.92C326.991 74.36 327.505 74.3967 328.311 74.03C329.998 72.93 331.721 71.4267 333.481 69.52C335.901 67.0267 338.431 63.9467 341.071 60.28C341.218 59.9867 341.878 59.18 343.051 57.86C343.125 57.7867 343.308 57.75 343.601 57.75C344.115 58.2633 343.638 60.17 342.171 63.47C341.731 64.4233 341.438 65.23 341.291 65.89C341.218 66.6233 341.621 66.99 342.501 66.99C343.381 66.99 344.481 66.6967 345.801 66.11L349.431 64.13L352.071 62.7C353.391 61.8933 354.418 61.49 355.151 61.49C355.811 61.49 355.811 61.82 355.151 62.48C351.118 65.4867 347.305 67.54 343.711 68.64C342.831 68.9333 342.135 69.08 341.621 69.08C340.595 69.08 339.715 68.7133 338.981 67.98C338.761 67.76 338.505 67.6867 338.211 67.76C337.918 67.76 337.698 67.8333 337.551 67.98C336.451 69.0067 335.461 69.9967 334.581 70.95C332.235 73.2967 330.328 74.91 328.861 75.79C327.835 76.3033 327.028 76.56 326.441 76.56C325.121 76.56 324.351 75.4967 324.131 73.37L323.801 68.53C323.801 67.87 323.435 67.76 322.701 68.2C322.041 68.5667 321.198 69.2633 320.171 70.29L316.321 74.03C315.808 74.5433 315.258 74.8 314.671 74.8C313.938 74.8 313.571 74.4333 313.571 73.7Z" fill="url(#paint9_linear_463_555)"/>
<path d="M364.615 46.31L364.945 46.75C364.945 46.8233 364.945 46.8967 364.945 46.97C365.018 47.0433 365.018 47.1167 364.945 47.19C363.845 49.17 362.635 51.15 361.315 53.13C361.095 53.4967 360.765 53.68 360.325 53.68C360.178 53.68 360.105 53.6433 360.105 53.57C360.105 53.4967 360.032 53.35 359.885 53.13C359.812 52.91 359.812 52.7633 359.885 52.69C360.398 51.6633 361.242 50.1967 362.415 48.29C362.562 48.07 363.148 47.4467 364.175 46.42C364.248 46.3467 364.395 46.31 364.615 46.31ZM351.415 67.54C352.148 65.34 353.212 63.14 354.605 60.94C354.678 60.5733 354.972 60.39 355.485 60.39C355.778 60.39 356.035 60.4633 356.255 60.61C356.475 60.6833 356.585 60.7933 356.585 60.94L356.475 61.16C354.715 64.1667 353.468 66.88 352.735 69.3C352.222 70.9133 351.965 72.27 351.965 73.37C351.965 74.6167 352.405 75.24 353.285 75.24C354.018 75.24 355.082 74.8 356.475 73.92C357.868 72.9667 359.922 71.4267 362.635 69.3L366.485 66.33C366.778 66.1833 366.998 66.1833 367.145 66.33C367.365 66.4767 367.475 66.6967 367.475 66.99C367.402 67.1367 367.328 67.2833 367.255 67.43C367.182 67.5767 367.072 67.7233 366.925 67.87L357.465 75.68C355.852 77 354.385 77.66 353.065 77.66C351.232 77.66 350.315 76.23 350.315 73.37C350.315 71.6833 350.682 69.74 351.415 67.54Z" fill="url(#paint10_linear_463_555)"/>
<path d="M369.002 65.12L367.682 67.87C367.242 69.2633 367.022 70.1433 367.022 70.51C367.022 70.6567 367.059 70.73 367.132 70.73C367.352 70.73 368.012 70.1067 369.112 68.86C370.872 66.9533 372.009 65.7433 372.522 65.23C374.062 63.69 375.419 62.92 376.592 62.92C377.692 62.92 378.242 63.6167 378.242 65.01C378.242 65.45 378.205 65.8167 378.132 66.11C377.179 70.2167 376.702 72.7467 376.702 73.7C376.702 74.9467 377.069 75.57 377.802 75.57C378.682 75.57 380.295 74.5067 382.642 72.38L391.442 64.02C391.955 63.5067 392.469 63.1033 392.982 62.81C393.495 62.5167 393.935 62.37 394.302 62.37C394.522 62.37 394.632 62.48 394.632 62.7C394.632 62.9933 394.412 63.36 393.972 63.8L382.862 74.36C381.909 75.24 380.882 75.9733 379.782 76.56C378.682 77.1467 377.729 77.44 376.922 77.44C375.749 77.44 375.052 76.8533 374.832 75.68C374.759 75.3133 374.722 74.8367 374.722 74.25C374.722 73.59 374.832 72.6733 375.052 71.5L375.822 66.88C375.822 66.22 375.565 65.89 375.052 65.89C374.539 65.89 374.062 66.11 373.622 66.55L369.222 71.06C369.002 71.28 368.599 71.6833 368.012 72.27C367.425 72.8567 366.802 73.37 366.142 73.81C365.555 74.1767 365.005 74.1767 364.492 73.81C364.125 73.59 363.942 73.1867 363.942 72.6C363.942 72.0133 364.125 71.2067 364.492 70.18C364.932 69.08 365.555 67.76 366.362 66.22C367.169 64.68 367.682 63.69 367.902 63.25C368.635 61.8567 369.295 60.8667 369.882 60.28C370.542 59.6933 370.872 59.6933 370.872 60.28C370.872 60.6467 370.652 61.3433 370.212 62.37L369.002 65.12Z" fill="url(#paint11_linear_463_555)"/>
<path d="M394.676 65.12L393.356 67.87C392.916 69.2633 392.696 70.1433 392.696 70.51C392.696 70.6567 392.732 70.73 392.806 70.73C393.026 70.73 393.686 70.1067 394.786 68.86C396.546 66.9533 397.682 65.7433 398.196 65.23C399.736 63.69 401.092 62.92 402.266 62.92C403.366 62.92 403.916 63.6167 403.916 65.01C403.916 65.45 403.879 65.8167 403.806 66.11C402.852 70.2167 402.376 72.7467 402.376 73.7C402.376 74.9467 402.742 75.57 403.476 75.57C404.356 75.57 405.969 74.5067 408.316 72.38L417.116 64.02C417.629 63.5067 418.142 63.1033 418.656 62.81C419.169 62.5167 419.609 62.37 419.976 62.37C420.196 62.37 420.306 62.48 420.306 62.7C420.306 62.9933 420.086 63.36 419.646 63.8L408.536 74.36C407.582 75.24 406.556 75.9733 405.456 76.56C404.356 77.1467 403.402 77.44 402.596 77.44C401.422 77.44 400.726 76.8533 400.506 75.68C400.432 75.3133 400.396 74.8367 400.396 74.25C400.396 73.59 400.506 72.6733 400.726 71.5L401.496 66.88C401.496 66.22 401.239 65.89 400.726 65.89C400.212 65.89 399.736 66.11 399.296 66.55L394.896 71.06C394.676 71.28 394.272 71.6833 393.686 72.27C393.099 72.8567 392.476 73.37 391.816 73.81C391.229 74.1767 390.679 74.1767 390.166 73.81C389.799 73.59 389.616 73.1867 389.616 72.6C389.616 72.0133 389.799 71.2067 390.166 70.18C390.606 69.08 391.229 67.76 392.036 66.22C392.842 64.68 393.356 63.69 393.576 63.25C394.309 61.8567 394.969 60.8667 395.556 60.28C396.216 59.6933 396.546 59.6933 396.546 60.28C396.546 60.6467 396.326 61.3433 395.886 62.37L394.676 65.12Z" fill="url(#paint12_linear_463_555)"/>
<path d="M424.09 73.92C423.283 74.4333 421.633 75.24 419.14 76.34C418.406 76.7067 417.563 76.89 416.61 76.89C415.51 76.89 414.63 76.56 413.97 75.9C413.383 75.24 413.09 74.3233 413.09 73.15C413.09 72.05 413.273 71.06 413.64 70.18C414.74 67.76 416.28 65.4133 418.26 63.14C420.313 60.7933 422.073 59.62 423.54 59.62C423.906 59.62 424.31 59.7667 424.75 60.06C425.116 60.4267 425.3 60.8667 425.3 61.38C425.3 61.9667 425.153 62.4433 424.86 62.81C424.126 63.9833 423.1 65.12 421.78 66.22C420.46 67.2467 419.213 68.0167 418.04 68.53C417.013 68.97 416.206 69.63 415.62 70.51C415.106 71.39 414.85 72.27 414.85 73.15C414.85 73.8833 415.07 74.47 415.51 74.91C416.023 75.2767 416.683 75.35 417.49 75.13C419.47 74.6167 421.633 73.6267 423.98 72.16L433.99 65.67C434.87 65.23 435.53 65.01 435.97 65.01C436.336 65.01 436.52 65.12 436.52 65.34C436.52 65.6333 436.19 66.0733 435.53 66.66L431.13 69.52C430.25 70.0333 429.223 70.6933 428.05 71.5C426.876 72.2333 425.556 73.04 424.09 73.92ZM420.9 64.9C421.56 64.3133 422.256 63.47 422.99 62.37C422.99 62.2967 422.916 62.1867 422.77 62.04C422.623 61.82 422.44 61.82 422.22 62.04C420.9 62.9933 419.983 63.8367 419.47 64.57C419.03 65.3033 419.03 65.67 419.47 65.67C419.836 65.67 420.313 65.4133 420.9 64.9Z" fill="url(#paint13_linear_463_555)"/>
<path d="M440.701 61.82C440.115 62.6267 439.528 63.6167 438.941 64.79C437.841 66.99 437.401 68.09 437.621 68.09C437.768 68.09 438.281 67.76 439.161 67.1C440.041 66.3667 440.958 65.6333 441.911 64.9C443.158 64.1667 444.258 63.8 445.211 63.8C445.945 63.8 446.568 64.0567 447.081 64.57C447.375 64.9367 447.705 65.4133 448.071 66C448.511 66.5867 448.915 66.88 449.281 66.88C449.501 66.88 449.648 66.8433 449.721 66.77C450.015 66.6967 450.748 66.2567 451.921 65.45C454.928 63.6167 456.688 62.7367 457.201 62.81C458.228 62.6633 458.301 63.03 457.421 63.91C456.541 64.7167 455.258 65.67 453.571 66.77C451.885 67.7967 450.601 68.4567 449.721 68.75C449.501 68.8233 449.208 68.86 448.841 68.86C447.961 68.86 447.301 68.53 446.861 67.87C445.761 66.55 444.735 65.89 443.781 65.89C442.975 65.89 442.095 66.2933 441.141 67.1C440.261 67.8333 438.978 69.1167 437.291 70.95L435.751 72.6C434.578 73.8467 433.588 74.7267 432.781 75.24C431.975 75.7533 431.571 75.68 431.571 75.02C431.571 74.7267 431.681 74.25 431.901 73.59C435.568 67.1367 438.281 62.26 440.041 58.96L441.031 57.75C441.178 57.6767 441.398 57.64 441.691 57.64C442.058 57.64 442.241 57.7867 442.241 58.08C442.021 58.96 441.765 59.6933 441.471 60.28C441.251 60.7933 440.995 61.3067 440.701 61.82Z" fill="url(#paint14_linear_463_555)"/>
<defs>
<linearGradient id="paint0_linear_463_555" x1="0.969483" y1="89.8413" x2="459.928" y2="23.8349" gradientUnits="userSpaceOnUse">
<stop stop-color="#FFDE9A"/>
<stop offset="1" stop-color="#CEA764"/>
</linearGradient>
<linearGradient id="paint1_linear_463_555" x1="0.969483" y1="89.8413" x2="459.928" y2="23.8349" gradientUnits="userSpaceOnUse">
<stop stop-color="#FFDE9A"/>
<stop offset="1" stop-color="#CEA764"/>
</linearGradient>
<linearGradient id="paint2_linear_463_555" x1="0.969483" y1="89.8413" x2="459.928" y2="23.8349" gradientUnits="userSpaceOnUse">
<stop stop-color="#FFDE9A"/>
<stop offset="1" stop-color="#CEA764"/>
</linearGradient>
<linearGradient id="paint3_linear_463_555" x1="0.969483" y1="89.8413" x2="459.928" y2="23.8349" gradientUnits="userSpaceOnUse">
<stop stop-color="#FFDE9A"/>
<stop offset="1" stop-color="#CEA764"/>
</linearGradient>
<linearGradient id="paint4_linear_463_555" x1="0.969483" y1="89.8413" x2="459.928" y2="23.8349" gradientUnits="userSpaceOnUse">
<stop stop-color="#FFDE9A"/>
<stop offset="1" stop-color="#CEA764"/>
</linearGradient>
<linearGradient id="paint5_linear_463_555" x1="0.969483" y1="89.8413" x2="459.928" y2="23.8349" gradientUnits="userSpaceOnUse">
<stop stop-color="#FFDE9A"/>
<stop offset="1" stop-color="#CEA764"/>
</linearGradient>
<linearGradient id="paint6_linear_463_555" x1="0.969483" y1="89.8413" x2="459.928" y2="23.8349" gradientUnits="userSpaceOnUse">
<stop stop-color="#FFDE9A"/>
<stop offset="1" stop-color="#CEA764"/>
</linearGradient>
<linearGradient id="paint7_linear_463_555" x1="0.969483" y1="89.8413" x2="459.928" y2="23.8349" gradientUnits="userSpaceOnUse">
<stop stop-color="#FFDE9A"/>
<stop offset="1" stop-color="#CEA764"/>
</linearGradient>
<linearGradient id="paint8_linear_463_555" x1="0.969483" y1="89.8413" x2="459.928" y2="23.8349" gradientUnits="userSpaceOnUse">
<stop stop-color="#FFDE9A"/>
<stop offset="1" stop-color="#CEA764"/>
</linearGradient>
<linearGradient id="paint9_linear_463_555" x1="0.969483" y1="89.8413" x2="459.928" y2="23.8349" gradientUnits="userSpaceOnUse">
<stop stop-color="#FFDE9A"/>
<stop offset="1" stop-color="#CEA764"/>
</linearGradient>
<linearGradient id="paint10_linear_463_555" x1="0.969483" y1="89.8413" x2="459.928" y2="23.8349" gradientUnits="userSpaceOnUse">
<stop stop-color="#FFDE9A"/>
<stop offset="1" stop-color="#CEA764"/>
</linearGradient>
<linearGradient id="paint11_linear_463_555" x1="0.969483" y1="89.8413" x2="459.928" y2="23.8349" gradientUnits="userSpaceOnUse">
<stop stop-color="#FFDE9A"/>
<stop offset="1" stop-color="#CEA764"/>
</linearGradient>
<linearGradient id="paint12_linear_463_555" x1="0.969483" y1="89.8413" x2="459.928" y2="23.8349" gradientUnits="userSpaceOnUse">
<stop stop-color="#FFDE9A"/>
<stop offset="1" stop-color="#CEA764"/>
</linearGradient>
<linearGradient id="paint13_linear_463_555" x1="0.969483" y1="89.8413" x2="459.928" y2="23.8349" gradientUnits="userSpaceOnUse">
<stop stop-color="#FFDE9A"/>
<stop offset="1" stop-color="#CEA764"/>
</linearGradient>
<linearGradient id="paint14_linear_463_555" x1="0.969483" y1="89.8413" x2="459.928" y2="23.8349" gradientUnits="userSpaceOnUse">
<stop stop-color="#FFDE9A"/>
<stop offset="1" stop-color="#CEA764"/>
</linearGradient>
</defs>
</svg>
