<svg width="143" height="92" viewBox="0 0 143 92" fill="none" xmlns="http://www.w3.org/2000/svg">
<path d="M63.1801 77.8037C63.0334 76.9237 62.8867 75.457 62.7401 73.4037C62.8134 71.277 63.1067 68.967 63.6201 66.4737C64.1334 63.9803 64.4634 62.367 64.6101 61.6337C65.3434 57.967 66.5167 52.467 68.1301 45.1337C68.4967 43.5203 68.6801 42.0903 68.6801 40.8437C68.6801 40.3303 68.6067 39.6337 68.4601 38.7537C68.3867 38.4603 68.1667 38.2037 67.8001 37.9837C67.4334 37.7637 67.0667 37.6537 66.7001 37.6537C65.9667 37.5803 65.0867 37.8003 64.0601 38.3137C61.2001 39.7803 58.4867 41.577 55.9201 43.7037C50.5667 48.0303 46.4967 51.4403 43.7101 53.9337C39.0167 58.1137 32.2701 64.6037 23.4701 73.4037L10.3801 86.3837C9.42674 87.2637 7.92341 88.5103 5.87008 90.1237C5.35674 90.5637 4.58674 91.0037 3.56008 91.4437C2.97341 91.737 2.38674 91.7003 1.80008 91.3337C1.14008 91.0403 0.736744 90.6003 0.590078 90.0137C0.516744 89.647 0.480077 89.097 0.480077 88.3637C0.480077 86.897 0.700078 85.5037 1.14008 84.1837C2.60674 79.4903 4.18341 75.237 5.87008 71.4237C8.73008 64.7503 12.8367 56.4637 18.1901 46.5637C22.5167 38.5703 27.4301 29.9903 32.9301 20.8237C34.8367 17.7437 36.8167 14.3703 38.8701 10.7037C38.9434 10.4837 39.2734 9.82367 39.8601 8.72367C40.4467 7.55034 40.8134 6.34034 40.9601 5.09367C41.0334 4.87367 40.8867 4.65367 40.5201 4.43367C40.2267 4.14033 39.9334 3.99367 39.6401 3.99367H39.4201C38.2467 4.287 37.4034 4.617 36.8901 4.98367C35.6434 5.79034 33.7734 7.147 31.2801 9.05367C31.2067 9.127 31.0967 9.16367 30.9501 9.16367C30.8767 9.16367 30.8401 9.127 30.8401 9.05367C30.6201 8.83367 30.5101 8.577 30.5101 8.28367C30.4367 8.137 30.4734 7.95367 30.6201 7.73367C32.8934 5.02034 35.9001 3.11367 39.6401 2.01367C40.3734 1.867 41.0701 2.01367 41.7301 2.45367C42.3901 2.82033 42.7567 3.37033 42.8301 4.10367C42.9767 5.35033 42.8301 6.487 42.3901 7.51367C42.0234 8.17367 41.6201 9.017 41.1801 10.0437C40.7401 10.997 40.3001 11.8037 39.8601 12.4637C37.5134 16.717 35.2034 20.6403 32.9301 24.2337L30.2901 28.7437C21.0501 44.437 13.7167 58.3703 8.29008 70.5437C5.57674 76.4103 3.63341 81.727 2.46008 86.4937C2.31341 87.227 2.24008 87.7037 2.24008 87.9237C2.24008 88.3637 2.31341 88.6937 2.46008 88.9137C2.68008 89.2803 2.97341 89.4637 3.34008 89.4637C3.92674 89.317 4.44008 89.097 4.88008 88.8037C6.49341 87.4837 8.10674 86.0903 9.72008 84.6237L24.2401 70.1037C34.8001 59.5437 43.8934 51.1837 51.5201 45.0237C53.6467 43.337 56.0301 41.577 58.6701 39.7437C59.1101 39.377 59.7701 38.9003 60.6501 38.3137C62.1167 37.2137 63.9501 36.3703 66.1501 35.7837C66.3701 35.7103 66.6634 35.6737 67.0301 35.6737C67.7634 35.6737 68.3867 35.857 68.9001 36.2237C69.4867 36.5903 69.8901 37.067 70.1101 37.6537C70.4767 38.5337 70.6601 39.3403 70.6601 40.0737C70.6601 40.5137 70.6234 40.8437 70.5501 41.0637C70.0367 45.317 69.4134 48.9103 68.6801 51.8437C67.5067 56.1703 66.1867 62.9903 64.7201 72.3037C64.6467 72.7437 64.6101 73.4037 64.6101 74.2837V76.2637C64.6101 76.6303 64.8667 76.8137 65.3801 76.8137L65.9301 76.7037C67.1034 75.3837 67.7634 74.577 67.9101 74.2837L69.8901 71.2037C70.4767 70.2503 71.1734 69.1137 71.9801 67.7937C72.8601 66.4003 73.8134 64.787 74.8401 62.9537C83.1267 48.507 94.6034 30.3203 109.27 8.39367C109.857 7.44033 111.433 5.167 114 1.57367L115.54 0.14367C115.613 0.0703373 115.687 0.0336711 115.76 0.0336711C115.907 0.0336711 116.017 0.0703373 116.09 0.14367C116.383 0.437004 116.53 0.693669 116.53 0.913666C116.53 1.06034 116.383 1.35367 116.09 1.79367C113.303 5.46034 110.407 9.567 107.4 14.1137C104.393 18.6603 101.533 23.097 98.8201 27.4237C98.3801 28.157 97.8668 29.0003 97.2801 29.9537C96.6934 30.8337 96.0334 31.8237 95.3001 32.9237C88.4801 43.4103 81.3667 55.0703 73.9601 67.9037C72.8601 69.957 71.1367 72.707 68.7901 76.1537C68.2034 77.107 67.3601 77.987 66.2601 78.7937C66.0401 79.0137 65.7101 79.1237 65.2701 79.1237C64.7567 79.1237 64.2801 78.977 63.8401 78.6837C63.4734 78.4637 63.2534 78.1703 63.1801 77.8037ZM84.5871 63.9437V63.3937C84.4404 62.5137 84.3671 61.8537 84.3671 61.4137C84.3671 58.9937 85.1004 57.0137 86.5671 55.4737C88.1071 53.9337 89.7571 53.1637 91.5171 53.1637C92.9838 53.1637 94.1938 53.7503 95.1471 54.9237C96.1738 56.097 96.6871 57.857 96.6871 60.2037C96.6871 60.7903 96.6138 61.7437 96.4671 63.0637C96.4671 63.5037 96.7604 63.577 97.3471 63.2837C97.9338 62.9903 98.8871 62.4037 100.207 61.5237L103.177 59.6537C103.324 59.507 103.47 59.507 103.617 59.6537C103.764 59.727 103.837 59.9103 103.837 60.2037C103.837 60.6437 103.654 61.047 103.287 61.4137C101.454 63.1003 99.4004 64.4937 97.1271 65.5937C94.8538 66.6937 93.0938 67.9403 91.8471 69.3337C90.9671 70.2137 89.9771 70.9103 88.8771 71.4237C87.8504 72.0103 86.9338 72.3037 86.1271 72.3037C84.4404 72.3037 83.5971 71.277 83.5971 69.2237L83.7071 68.2337C83.7804 67.7937 83.8904 67.2803 84.0371 66.6937C84.2571 66.107 84.4038 65.667 84.4771 65.3737C84.5504 65.0803 84.5871 64.6037 84.5871 63.9437ZM92.6171 54.8137C92.0304 54.8137 91.4071 55.0337 90.7471 55.4737C89.5004 56.1337 88.5104 57.0137 87.7771 58.1137C87.0438 59.2137 86.6771 60.4237 86.6771 61.7437C86.6771 62.1103 86.7504 62.6603 86.8971 63.3937C86.9704 63.9803 87.3004 64.4937 87.8871 64.9337C88.5471 65.3737 89.2438 65.5937 89.9771 65.5937C91.6638 65.5937 92.9838 64.9337 93.9371 63.6137C94.8904 62.2937 95.3671 60.7903 95.3671 59.1037C95.3671 57.9303 95.1104 56.9403 94.5971 56.1337C94.1571 55.2537 93.4971 54.8137 92.6171 54.8137ZM86.3471 67.2437C86.0538 67.3903 85.9071 67.5737 85.9071 67.7937C85.9071 67.867 85.8704 68.0503 85.7971 68.3437C85.7238 68.5637 85.6871 68.857 85.6871 69.2237C85.7604 69.517 85.9071 69.8103 86.1271 70.1037C86.3471 70.3237 86.6038 70.4337 86.8971 70.4337C87.0438 70.4337 87.2638 70.3603 87.5571 70.2137C88.2171 69.9203 88.9504 69.4437 89.7571 68.7837C90.0504 68.4903 90.0138 68.197 89.6471 67.9037C88.3271 67.3903 87.4838 67.097 87.1171 67.0237C86.8971 66.9503 86.6404 67.0237 86.3471 67.2437ZM99.7766 69.3337C100.95 64.2737 102.6 60.0937 104.727 56.7937C104.947 56.5737 105.167 56.5737 105.387 56.7937C105.68 57.0137 105.827 57.2703 105.827 57.5637V57.7837L104.397 61.0837C103.883 62.257 103.443 63.3203 103.077 64.2737C102.783 65.1537 102.82 65.5937 103.187 65.5937C103.627 65.5937 104.653 64.897 106.267 63.5037C106.633 63.2103 107.11 62.7703 107.697 62.1837C108.357 61.597 108.98 61.157 109.567 60.8637C110.447 60.4237 111.07 60.5703 111.437 61.3037C111.803 62.037 112.06 63.1737 112.207 64.7137C112.28 65.3737 112.353 66.217 112.427 67.2437C112.573 68.2703 112.757 69.0403 112.977 69.5537C113.197 69.9937 113.71 70.0303 114.517 69.6637C116.203 68.5637 117.927 67.0603 119.687 65.1537C122.107 62.6603 124.637 59.5803 127.277 55.9137C127.423 55.6203 128.083 54.8137 129.257 53.4937C129.33 53.4203 129.513 53.3837 129.807 53.3837C130.32 53.897 129.843 55.8037 128.377 59.1037C127.937 60.057 127.643 60.8637 127.497 61.5237C127.423 62.257 127.827 62.6237 128.707 62.6237C129.587 62.6237 130.687 62.3303 132.007 61.7437L135.637 59.7637L138.277 58.3337C139.597 57.527 140.623 57.1237 141.357 57.1237C142.017 57.1237 142.017 57.4537 141.357 58.1137C137.323 61.1203 133.51 63.1737 129.917 64.2737C129.037 64.567 128.34 64.7137 127.827 64.7137C126.8 64.7137 125.92 64.347 125.187 63.6137C124.967 63.3937 124.71 63.3203 124.417 63.3937C124.123 63.3937 123.903 63.467 123.757 63.6137C122.657 64.6403 121.667 65.6303 120.787 66.5837C118.44 68.9303 116.533 70.5437 115.067 71.4237C114.04 71.937 113.233 72.1937 112.647 72.1937C111.327 72.1937 110.557 71.1303 110.337 69.0037L110.007 64.1637C110.007 63.5037 109.64 63.3937 108.907 63.8337C108.247 64.2003 107.403 64.897 106.377 65.9237L102.527 69.6637C102.013 70.177 101.463 70.4337 100.877 70.4337C100.143 70.4337 99.7766 70.067 99.7766 69.3337Z" fill="url(#paint0_linear_463_672)"/>
<defs>
<linearGradient id="paint0_linear_463_672" x1="12.29" y1="78.7818" x2="136.201" y2="75.1905" gradientUnits="userSpaceOnUse">
<stop stop-color="#FFDE9A"/>
<stop offset="1" stop-color="#CEA764"/>
</linearGradient>
</defs>
</svg>
